<svg xmlns="http://www.w3.org/2000/svg" viewBox="0 0 1226.14 1226.55"><title>Asset 2</title><g id="Layer_2" data-name="Layer 2"><g id="Layer_1-2" data-name="Layer 1"><path d="M612.69,1226.55h-.05a7.08,7.08,0,1,1,.05,0Z"/><path d="M1219.07,620.17a7.09,7.09,0,1,1,7.07-7.12v.05A7.07,7.07,0,0,1,1219.07,620.17Z"/><path d="M1215.07,548.17a7.09,7.09,0,1,1,7.07-7.12v.05A7.07,7.07,0,0,1,1215.07,548.17Z"/><path d="M1202.07,478.17a7.09,7.09,0,1,1,7.07-7.12v.05A7.07,7.07,0,0,1,1202.07,478.17Z"/><path d="M1181.07,410.17a7.09,7.09,0,1,1,7.07-7.12v.05A7.07,7.07,0,0,1,1181.07,410.17Z"/><path d="M1153.07,344.17a7.09,7.09,0,1,1,7.07-7.12v.05A7.07,7.07,0,0,1,1153.07,344.17Z"/><path d="M1117.07,283.17a7.09,7.09,0,1,1,7.07-7.12v.05A7.07,7.07,0,0,1,1117.07,283.17Z"/><path d="M1073.07,226.17a7.09,7.09,0,1,1,7.07-7.12v0A7.07,7.07,0,0,1,1073.07,226.17Z"/><path d="M1024.07,174.17a7.09,7.09,0,1,1,7.07-7.12v0A7.07,7.07,0,0,1,1024.07,174.17Z"/><path d="M969.07,129.17a7.09,7.09,0,1,1,7.07-7.12v0A7.07,7.07,0,0,1,969.07,129.17Z"/><path d="M909.07,91.17a7.09,7.09,0,1,1,7.07-7.12v0A7.07,7.07,0,0,1,909.07,91.17Z"/><path d="M844.07,59.17a7.09,7.09,0,1,1,7.07-7.12v.05A7.07,7.07,0,0,1,844.07,59.17Z"/><path d="M777.07,36.17a7.09,7.09,0,1,1,7.07-7.12v.05A7.07,7.07,0,0,1,777.07,36.17Z"/><path d="M707.07,21.17a7.09,7.09,0,1,1,7.07-7.12v0A7.07,7.07,0,0,1,707.07,21.17Z"/><path d="M636.07,14.17a7.09,7.09,0,1,1,7.07-7.12v0A7.07,7.07,0,0,1,636.07,14.17Z"/><path d="M565.07,16.17a7.09,7.09,0,1,1,7.07-7.12v0A7.07,7.07,0,0,1,565.07,16.17Z"/><path d="M494.07,25.17a7.09,7.09,0,1,1,7.07-7.12v.05A7.07,7.07,0,0,1,494.07,25.17Z"/><path d="M425.07,43.17a7.09,7.09,0,1,1,7.07-7.12v.05A7.07,7.07,0,0,1,425.07,43.17Z"/><path d="M358.07,69.17a7.09,7.09,0,1,1,7.07-7.12v.05A7.07,7.07,0,0,1,358.07,69.17Z"/><path d="M295.07,103.17a7.09,7.09,0,1,1,7.07-7.12v0A7.07,7.07,0,0,1,295.07,103.17Z"/><path d="M237.07,144.17a7.09,7.09,0,1,1,7.07-7.12v0A7.07,7.07,0,0,1,237.07,144.17Z"/><path d="M184.07,191.17a7.09,7.09,0,1,1,7.07-7.12v0A7.07,7.07,0,0,1,184.07,191.17Z"/><path d="M136.07,245.17a7.09,7.09,0,1,1,7.07-7.12v0A7.07,7.07,0,0,1,136.07,245.17Z"/><path d="M95.07,303.17a7.09,7.09,0,1,1,7.07-7.12v.05A7.07,7.07,0,0,1,95.07,303.17Z"/><path d="M62.07,366.17a7.09,7.09,0,1,1,7.07-7.12v.05A7.07,7.07,0,0,1,62.07,366.17Z"/><path d="M36.07,433.17a7.09,7.09,0,1,1,7.07-7.12v.05A7.07,7.07,0,0,1,36.07,433.17Z"/><path d="M18.07,502.17a7.09,7.09,0,1,1,7.07-7.12v.05A7.07,7.07,0,0,1,18.07,502.17Z"/><path d="M8.07,572.17a7.09,7.09,0,1,1,7.07-7.12v.05A7.07,7.07,0,0,1,8.07,572.17Z"/><path d="M7.07,644.17a7.09,7.09,0,1,1,7.07-7.12v.05A7.07,7.07,0,0,1,7.07,644.17Z"/><path d="M14.07,715.17a7.09,7.09,0,1,1,7.07-7.12v.05A7.07,7.07,0,0,1,14.07,715.17Z"/><path d="M29.07,785.17a7.09,7.09,0,1,1,7.07-7.12v.05A7.07,7.07,0,0,1,29.07,785.17Z"/><path d="M52.07,852.17a7.09,7.09,0,1,1,7.07-7.12v.05A7.07,7.07,0,0,1,52.07,852.17Z"/><path d="M84.07,916.17a7.09,7.09,0,1,1,7.07-7.12v.05A7.07,7.07,0,0,1,84.07,916.17Z"/><path d="M122.07,976.17a7.09,7.09,0,1,1,7.07-7.12v.05A7.07,7.07,0,0,1,122.07,976.17Z"/><path d="M167.07,1032.17a7.09,7.09,0,1,1,7.07-7.12v0A7.07,7.07,0,0,1,167.07,1032.17Z"/><path d="M219.07,1081.17a7.09,7.09,0,1,1,7.07-7.12v0A7.07,7.07,0,0,1,219.07,1081.17Z"/><path d="M276.07,1124.17a7.09,7.09,0,1,1,7.07-7.12v0A7.07,7.07,0,0,1,276.07,1124.17Z"/><path d="M337.07,1160.17a7.09,7.09,0,1,1,7.07-7.12v0A7.07,7.07,0,0,1,337.07,1160.17Z"/><path d="M403.07,1189.17a7.09,7.09,0,1,1,7.07-7.12v0A7.07,7.07,0,0,1,403.07,1189.17Z"/><path d="M471.07,1210.17a7.09,7.09,0,1,1,7.07-7.12v0A7.07,7.07,0,0,1,471.07,1210.17Z"/><path d="M541.07,1222.17a7.09,7.09,0,1,1,7.07-7.12v0A7.07,7.07,0,0,1,541.07,1222.17Z"/></g></g></svg>