<svg xmlns="http://www.w3.org/2000/svg" xmlns:xlink="http://www.w3.org/1999/xlink" viewBox="0 0 653.32 1487.07"><defs><style>.cls-1,.cls-29,.cls-37,.cls-38{fill:none;}.cls-2{clip-path:url(#clip-path);}.cls-3{fill:#d3d1cd;opacity:0.5;}.cls-4{fill:#565559;}.cls-5,.cls-6{font-size:43.81px;}.cls-14,.cls-5,.cls-6,.cls-8{fill:#251f20;}.cls-23,.cls-26,.cls-27,.cls-28,.cls-31,.cls-5{font-family:TaubSans-Bold, Taub Sans;font-weight:700;}.cls-34,.cls-36,.cls-6{font-family:TaubSans-Light, Taub Sans;font-weight:300;}.cls-26,.cls-7{fill:#ff545b;}.cls-9{fill:#7a85a0;}.cls-10,.cls-11,.cls-12,.cls-13{fill:#fff;}.cls-11{font-size:30.32px;font-family:ProximaNova-Regular, Proxima Nova;}.cls-12{fill-rule:evenodd;}.cls-13{opacity:0.45;}.cls-14{font-size:36.34px;font-family:TaubSans-Medium, Taub Sans;font-weight:500;}.cls-15{letter-spacing:-0.02em;}.cls-16{letter-spacing:-0.01em;}.cls-17{letter-spacing:-0.02em;}.cls-18{letter-spacing:0em;}.cls-19{letter-spacing:-0.02em;}.cls-20{letter-spacing:0em;}.cls-21{letter-spacing:-0.04em;}.cls-22{letter-spacing:-0.09em;}.cls-23,.cls-36{font-size:31.8px;}.cls-24{letter-spacing:-0.02em;}.cls-25{letter-spacing:-0.13em;}.cls-26,.cls-27,.cls-28{font-size:45.43px;}.cls-28,.cls-30{fill:#ffa781;}.cls-29,.cls-37{stroke:#000;}.cls-29,.cls-37,.cls-38{stroke-miterlimit:10;}.cls-31,.cls-34{font-size:35.51px;}.cls-32{letter-spacing:-0.01em;}.cls-33{letter-spacing:-0.07em;}.cls-35{letter-spacing:-0.02em;}.cls-37,.cls-38{stroke-width:0.5px;}.cls-38{stroke:#ffa781;}</style><clipPath id="clip-path"><rect id="screen" class="cls-1" x="2.91" y="2.91" width="647.5" height="1481.26" rx="31.58"/></clipPath></defs><title>Asset 3</title><g id="Layer_2" data-name="Layer 2"><g id="Layer_1-2" data-name="Layer 1"><g class="cls-2"><rect class="cls-3" x="2.01" y="40.9" width="648.39" height="79.61"/><rect class="cls-4" x="2.01" y="1.84" width="648.39" height="39.8"/><text class="cls-5" transform="translate(247.14 94.48)">Insights</text><text class="cls-6" transform="translate(102.74 182.54)">Insights Details</text><rect class="cls-7" x="24.3" y="63.44" width="63.43" height="8.74" rx="0.75"/><rect class="cls-7" x="24.3" y="79.55" width="63.43" height="8.74" rx="0.75"/><rect class="cls-7" x="24.3" y="95.65" width="63.43" height="8.74" rx="0.75"/><rect class="cls-3" x="2.01" y="210.04" width="648.39" height="264.18"/><path class="cls-8" d="M652,1485.8H.37V.21H652Zm-648.4-3.27H648.77V3.48H3.64Z"/><g id="qwlWZu"><path d="M57.6,193c-13.93-.23-25.12-10.87-25.16-25.17A24.86,24.86,0,0,1,57.62,142.6a24.86,24.86,0,0,1,25.12,25.16C82.73,181.88,71.7,192.69,57.6,193ZM35.8,167.59a21.81,21.81,0,1,0,22-21.66A21.83,21.83,0,0,0,35.8,167.59Z"/><path d="M48.42,167.72a1.31,1.31,0,0,1,.48-.93q5.68-5.7,11.39-11.39c.78-.78,1.46-.7,2.32.17s.89,1.51.07,2.33c-3,3-6,6-9,9-.64.63-.68,1,0,1.64,3,2.91,5.91,5.88,8.85,8.83a1.8,1.8,0,0,1-.81,3.18c-.67.23-1.08-.17-1.49-.57l-5.34-5.34-5.79-5.79A1.54,1.54,0,0,1,48.42,167.72Z"/></g><path class="cls-9" d="M653.32,1487.07H0V0H653.32ZM5.81,1481.25H647.5V5.81H5.81Z"/><g id="Status_Bar_Black_Base" data-name="Status Bar/Black/Base"><g id="Charge"><g id="Battery-Icon"><path id="Shape" class="cls-10" d="M573.06,11.22h0a2.53,2.53,0,0,0-2.54,2.53V30.17a2.54,2.54,0,0,0,2.54,2.53h49.25a2.53,2.53,0,0,0,2.53-2.53V13.75a2.53,2.53,0,0,0-2.53-2.53Zm0-1.26h49.25a3.79,3.79,0,0,1,3.79,3.79V30.17A3.78,3.78,0,0,1,622.31,34H573.06a3.8,3.8,0,0,1-3.8-3.79V13.75a3.79,3.79,0,0,1,3.8-3.79Z"/><path id="Charge-2" data-name="Charge" class="cls-10" d="M574.39,12.48h18.23a2.22,2.22,0,0,1,2.26,2.18V29.25a2.22,2.22,0,0,1-2.26,2.18H574.39a2.21,2.21,0,0,1-2.25-2.18V14.66A2.22,2.22,0,0,1,574.39,12.48Z"/><path id="Shape-2" data-name="Shape" class="cls-10" d="M631.79,22A4.45,4.45,0,0,1,628,26.38V17.54A4.45,4.45,0,0,1,631.79,22Z"/></g><text class="cls-11" transform="translate(490.61 31.44)">58 %</text></g></g><path id="Wifi" class="cls-12" d="M200.28,28.05a7.8,7.8,0,0,0-10.35,0l5.17,5.72Zm-5.18-5.61a11.83,11.83,0,0,1,7.69,2.83l2.52-2.78a15.33,15.33,0,0,0-20.4,0l2.51,2.78A11.87,11.87,0,0,1,195.1,22.44Zm0-7.57a19.52,19.52,0,0,1,12.8,4.76L210.27,17A22.19,22.19,0,0,0,180,17l2.37,2.63A19.49,19.49,0,0,1,195.1,14.87Z"/><text class="cls-11" transform="translate(118.25 30.06)">Bell</text><circle id="Oval" class="cls-10" cx="31.19" cy="22.04" r="6.95"/><circle id="Oval-2" data-name="Oval" class="cls-10" cx="49.14" cy="21.59" r="6.95"/><circle id="Oval-3" data-name="Oval" class="cls-10" cx="66.73" cy="21.59" r="6.95"/><path id="Circle" class="cls-10" d="M84.31,15.09a7,7,0,1,0,7,7A7,7,0,0,0,84.31,15.09Zm0,12.64A5.69,5.69,0,1,1,90,22,5.68,5.68,0,0,1,84.31,27.73Z"/><path id="Circle-2" data-name="Circle" class="cls-10" d="M101.52,15.09a7,7,0,1,0,7,7A6.95,6.95,0,0,0,101.52,15.09Zm0,12.64A5.69,5.69,0,1,1,107.2,22,5.69,5.69,0,0,1,101.52,27.73Z"/><text class="cls-11" transform="translate(295.27 30.3)">9:41 AM</text><path id="Bluetooth-Icon" class="cls-13" d="M465.78,29.28V22.41l3.3,3.6-3.3,3.27Zm3.46-13.56-3.46,3.48V12.61l3.46,3.11Zm2.5,0-7.66-7.43h-.18V18.62l-5.19-5.44-1.48,1.54,6.25,6.15L457.23,27l1.48,1.55,5.19-5.45V33.44h.33L471.81,26l-5.2-5.12Z"/></g><path class="cls-9" d="M618.83,1487.07H34.49A34.53,34.53,0,0,1,0,1452.58V34.49A34.53,34.53,0,0,1,34.49,0H618.83a34.53,34.53,0,0,1,34.49,34.49V1452.58A34.53,34.53,0,0,1,618.83,1487.07ZM34.49,5.81A28.71,28.71,0,0,0,5.81,34.49V1452.58a28.7,28.7,0,0,0,28.68,28.67H618.83a28.7,28.7,0,0,0,28.67-28.67V34.49A28.71,28.71,0,0,0,618.83,5.81Z"/><path class="cls-10" d="M5.81,1287.38v165.2a28.71,28.71,0,0,0,28.68,28.68H618.83a28.71,28.71,0,0,0,28.67-28.68v-165.2Z"/><text class="cls-14" transform="translate(49.4 1446.94)">Empl<tspan class="cls-15" x="75.41" y="0">o</tspan><tspan class="cls-16" x="93.14" y="0">y</tspan><tspan x="111.75" y="0">ees</tspan></text><text class="cls-14" transform="translate(249.28 1446.94)">Data</text><text class="cls-14" transform="translate(367.39 1446.94)">Export</text><text class="cls-14" transform="translate(521.85 1446.94)">Mo<tspan class="cls-17" x="46.63" y="0">r</tspan><tspan class="cls-18" x="58.95" y="0">e</tspan></text><path d="M129.9,1323.49c6.3,0,13.82,3.11,13.82,18s-7.52,18-13.82,18-13.82-3.12-13.82-18,7.52-18,13.82-18m0,40.94c5.67,0,18.86-2.24,18.86-23s-13.19-23-18.86-23-18.87,2.24-18.87,23,13.2,23,18.87,23"/><polygon points="98.03 1397.51 103.08 1397.51 103.08 1376.62 131.43 1376.62 131.43 1371.57 98.03 1371.57 98.03 1397.51"/><polygon class="cls-7" points="150.3 1379.41 146.84 1383.09 156.08 1391.77 178.24 1369.62 174.67 1366.05 155.97 1384.74 150.3 1379.41"/><path class="cls-7" d="M153.21,1396.89a12.57,12.57,0,0,1,0-25.13,12.24,12.24,0,0,1,5.21,1.14l2.16-4.56a17.14,17.14,0,0,0-7.37-1.63,17.62,17.62,0,1,0,12.49,30l-3.57-3.57a12.54,12.54,0,0,1-8.92,3.7"/><rect x="249.65" y="1390.61" width="65.52" height="6.9"/><rect x="239.3" y="1318.2" width="6.9" height="68.96"/><polygon class="cls-7" points="253.76 1385.29 248.02 1381.47 274.99 1341.02 287.84 1353.87 316.2 1325.51 321.07 1330.39 287.84 1363.62 276.06 1351.84 253.76 1385.29"/><rect x="436.93" y="1333.01" width="6.36" height="31.82"/><rect x="401.92" y="1320.28" width="38.19" height="6.36"/><rect x="398.74" y="1333.01" width="6.36" height="31.82"/><polygon points="421.01 1397.51 390.42 1373.71 394.32 1368.69 421.01 1389.44 447.7 1368.69 451.61 1373.71 421.01 1397.51"/><rect class="cls-7" x="407.51" y="1342.56" width="27" height="6.36" transform="translate(-828.27 691.86) rotate(-45)"/><circle class="cls-7" cx="414.65" cy="1339.38" r="3.18"/><circle class="cls-7" cx="427.38" cy="1352.11" r="3.18"/><rect class="cls-7" x="537.29" y="1359.47" width="46.85" height="5.86"/><rect class="cls-7" x="557.79" y="1338.97" width="5.86" height="46.85"/><rect x="525.5" y="1338.97" width="5.86" height="46.85"/><rect x="590.05" y="1338.97" width="5.86" height="46.85"/><rect x="528.51" y="1327.26" width="64.42" height="5.86"/><rect x="528.51" y="1391.65" width="64.42" height="5.86"/><path d="M44.54,243.83h8.31l7.09,34.07H52.35Zm8.54,34.07,8.76-34.07h7.77L60.89,277.9Zm9.81-34.07h8.27l8.72,34.07H71.7ZM73.34,277.9l7.13-34.07H88.6L80.74,277.9Z"/><path d="M94.71,277a10.24,10.24,0,0,1-4.29-4.13,12.65,12.65,0,0,1-1.5-6.27q0-5.6,2.82-8.73a10,10,0,0,1,7.81-3.13,9.89,9.89,0,0,1,7.79,3.13q2.79,3.14,2.79,8.73v2.86H94v-5.73h11.18l-2.46,2.87a9.55,9.55,0,0,0-.72-4.32,2.86,2.86,0,0,0-4.82,0,9.55,9.55,0,0,0-.72,4.32,5,5,0,0,0,1.34,3.88,6.32,6.32,0,0,0,4.29,1.2,9.09,9.09,0,0,0,2.93-.38,14.82,14.82,0,0,0,2.11-.93l0-.05,2.81,6a12.41,12.41,0,0,1-3.75,1.57,20.72,20.72,0,0,1-5,.52A13.93,13.93,0,0,1,94.71,277Z"/><path d="M114.22,243.83h7.5v3.59a30.55,30.55,0,0,1-1,5.68.23.23,0,0,1,0,.11.74.74,0,0,0,0,.12l-1.55,6.31-6.76-1.77,1.31-5.09a15.06,15.06,0,0,0,.5-4Z"/><path d="M124.9,255.19h8L139,277.54l-7,.36Zm16.81,16v6.72h-9.64v-6.72Zm-6.59,6.36,6.13-22.35h7.63l-7.17,22.71Z"/><path d="M156,277a10.26,10.26,0,0,1-4.3-4.13,12.75,12.75,0,0,1-1.49-6.27c0-3.73.93-6.64,2.81-8.73a11.3,11.3,0,0,1,15.61,0q2.79,3.14,2.79,8.73v2.86H155.2v-5.73h11.17l-2.45,2.87a9.39,9.39,0,0,0-.73-4.32,2.85,2.85,0,0,0-4.81,0,9.39,9.39,0,0,0-.73,4.32,5,5,0,0,0,1.34,3.88,6.34,6.34,0,0,0,4.29,1.2,9.05,9.05,0,0,0,2.93-.38,14.46,14.46,0,0,0,2.12-.93l0-.05,2.82,6a12.41,12.41,0,0,1-3.75,1.57,20.84,20.84,0,0,1-5,.52A13.9,13.9,0,0,1,156,277Z"/><path d="M184.23,255.19h7v7.36l.45.91V277.9h-7.49Zm14.35,22.71V264.05a2.45,2.45,0,0,0-.79-1.91,3.1,3.1,0,0,0-2.16-.73,3.45,3.45,0,0,0-2,.62,4.12,4.12,0,0,0-1.39,1.68,5.7,5.7,0,0,0-.5,2.43h-1.86c0-3.61.79-6.41,2.38-8.43a8,8,0,0,1,6.66-3,7.11,7.11,0,0,1,7.18,7.18v16Z"/><path d="M211.16,260.37a10.36,10.36,0,0,1,3.93-4.18,11.14,11.14,0,0,1,5.8-1.5,11,11,0,0,1,5.74,1.5,10.36,10.36,0,0,1,3.93,4.18,14.23,14.23,0,0,1,0,12.35,10.36,10.36,0,0,1-3.93,4.18,11,11,0,0,1-5.74,1.5,11.14,11.14,0,0,1-5.8-1.5,10.36,10.36,0,0,1-3.93-4.18,14.32,14.32,0,0,1,0-12.35Zm7.09,9.86a3.09,3.09,0,0,0,2.64,1.4,3,3,0,0,0,2.59-1.4,6.28,6.28,0,0,0,1-3.68,6.4,6.4,0,0,0-1-3.71,3,3,0,0,0-2.59-1.43,3.1,3.1,0,0,0-2.64,1.43,6.33,6.33,0,0,0-1,3.71A6.21,6.21,0,0,0,218.25,270.23Z"/><path d="M251.19,261.91H234.42v-6.72h16.77Zm-13.31-14.67h7.49v21.81a2.93,2.93,0,0,0,.55,1.95,2.27,2.27,0,0,0,1.81.63,4,4,0,0,0,2.18-.68l1.91,5.95a8.84,8.84,0,0,1-5.36,1.5q-4.23,0-6.4-2a7.62,7.62,0,0,1-2.18-5.86Z"/><path d="M255.5,243.83H263v8.5h-7.5ZM263.59,271a2.24,2.24,0,0,0,1.68.59,3,3,0,0,0,.45,0l.32,0a.18.18,0,0,1,.14,0l.09,6.64a12.09,12.09,0,0,1-2.5.22c-2.76,0-4.82-.69-6.2-2.09s-2.07-3.48-2.07-6.27V255.19H263v14.17A2.24,2.24,0,0,0,263.59,271Z"/><path d="M277.65,270.27a4.46,4.46,0,0,0,3.47,1.36,5.66,5.66,0,0,0,4.36-1.81l2.82,5.9a8.39,8.39,0,0,1-3.36,2,14.33,14.33,0,0,1-4.59.68c-3.61,0-6.41-1-8.43-3.13s-3-5-3-8.72,1-6.64,3-8.73,4.82-3.13,8.43-3.13a14.61,14.61,0,0,1,4.59.68,8.51,8.51,0,0,1,3.36,2l-2.82,5.91a5.57,5.57,0,0,0-4.36-1.87,4.47,4.47,0,0,0-3.45,1.39,6.17,6.17,0,0,0,0,7.47Z"/><path d="M296.77,277a10.24,10.24,0,0,1-4.29-4.13,12.65,12.65,0,0,1-1.5-6.27q0-5.6,2.82-8.73a11.28,11.28,0,0,1,15.6,0q2.79,3.14,2.79,8.73v2.86H296v-5.73H307.2l-2.46,2.87a9.55,9.55,0,0,0-.72-4.32,2.86,2.86,0,0,0-4.82,0,9.53,9.53,0,0,0-.73,4.32,5,5,0,0,0,1.34,3.88,6.37,6.37,0,0,0,4.3,1.2,9.09,9.09,0,0,0,2.93-.38,14.82,14.82,0,0,0,2.11-.93l.05-.05,2.81,6a12.41,12.41,0,0,1-3.75,1.57,20.72,20.72,0,0,1-5,.52A13.93,13.93,0,0,1,296.77,277Z"/><path d="M316.37,260.32a9.51,9.51,0,0,1,3.07-4.15,7.39,7.39,0,0,1,4.56-1.48,7,7,0,0,1,6.14,2.95q2,3,2,8.91t-2,8.9A7,7,0,0,1,324,278.4a7.47,7.47,0,0,1-4.54-1.47,9.51,9.51,0,0,1-3.09-4.18,18.26,18.26,0,0,1,0-12.43Zm13,10a6.27,6.27,0,0,0,1-3.77,6.39,6.39,0,0,0-1-3.8,3.58,3.58,0,0,0-5.59,0,6.39,6.39,0,0,0-1,3.8,6.27,6.27,0,0,0,1,3.77,3.64,3.64,0,0,0,5.59,0Zm8.47,7.58h-7v-6.31l-.45-.64V243.83h7.49Z"/><path d="M349.67,255.19h8.09l6.13,20.35-6.54.86Zm15.54,26a8.76,8.76,0,0,1-2.73,2.13l-8.13,4.37-3.41-6.55,8.68-4.27a1,1,0,0,0,.54-.36,3.62,3.62,0,0,0,.32-.77v-.11a.17.17,0,0,1,0-.12l6.58-20.35h7.73l-8,23A10.7,10.7,0,0,1,365.21,281.22Zm-.5-11.54v6.72h-7.36v-6.72Z"/><path d="M377.88,260.37a10.36,10.36,0,0,1,3.93-4.18,11.85,11.85,0,0,1,11.54,0,10.36,10.36,0,0,1,3.93,4.18,14.23,14.23,0,0,1,0,12.35,10.36,10.36,0,0,1-3.93,4.18,11.85,11.85,0,0,1-11.54,0,10.36,10.36,0,0,1-3.93-4.18,14.23,14.23,0,0,1,0-12.35Zm7.09,9.86a3.06,3.06,0,0,0,2.63,1.4,3,3,0,0,0,2.59-1.4,6.21,6.21,0,0,0,1-3.68,6.33,6.33,0,0,0-1-3.71,3.1,3.1,0,0,0-5.22,0,6.33,6.33,0,0,0-1,3.71A6.21,6.21,0,0,0,385,270.23Z"/><path d="M409.86,255.19v13.86a2.4,2.4,0,0,0,.8,1.88,3.13,3.13,0,0,0,2.15.7,3.53,3.53,0,0,0,2-.59,3.88,3.88,0,0,0,1.38-1.65,5.77,5.77,0,0,0,.5-2.43h1.86q0,5.4-2.38,8.42a8,8,0,0,1-6.66,3,7,7,0,0,1-3.63-.95,7.15,7.15,0,0,1-2.59-2.59,7,7,0,0,1-.95-3.63v-16Zm14.36,22.71h-7v-7.4l-.46-.55V255.19h7.5Z"/><path d="M428.67,255.19h7v7.95l.45,1V277.9h-7.49Zm16.08,5.18-7.22,4a2.25,2.25,0,0,0-1,1,3.17,3.17,0,0,0-.37,1.55H434.3a17.83,17.83,0,0,1,1.5-7.7,10.24,10.24,0,0,1,4.41-4.75l.91-.5Z"/><path d="M457.06,260.37a10.36,10.36,0,0,1,3.93-4.18,11.85,11.85,0,0,1,11.54,0,10.36,10.36,0,0,1,3.93,4.18,14.23,14.23,0,0,1,0,12.35,10.36,10.36,0,0,1-3.93,4.18,11.85,11.85,0,0,1-11.54,0,10.36,10.36,0,0,1-3.93-4.18,14.23,14.23,0,0,1,0-12.35Zm7.09,9.86a3.13,3.13,0,0,0,5.22,0,6.21,6.21,0,0,0,1-3.68,6.33,6.33,0,0,0-1-3.71,3.1,3.1,0,0,0-5.22,0,6.33,6.33,0,0,0-1,3.71A6.21,6.21,0,0,0,464.15,270.23Z"/><path d="M481.64,255.19h7v7.95l.45,1V277.9h-7.49Zm16.08,5.18-7.23,4a2.28,2.28,0,0,0-1,1,3.17,3.17,0,0,0-.37,1.55h-1.86a17.83,17.83,0,0,1,1.5-7.7,10.24,10.24,0,0,1,4.41-4.75l.9-.5Z"/><path d="M499.72,260.32a9.49,9.49,0,0,1,3.06-4.15,7.4,7.4,0,0,1,4.57-1.48,7,7,0,0,1,6.13,2.95c1.36,2,2,4.94,2,8.91s-.69,6.93-2,8.9a7,7,0,0,1-6.13,2.95,7.45,7.45,0,0,1-4.54-1.47,9.36,9.36,0,0,1-3.09-4.18,18.26,18.26,0,0,1,0-12.43Zm13.94,2.37.46-.78v-6.72h7V277q0,5-3.16,7.79t-9.11,2.75a26.08,26.08,0,0,1-5.63-.55,14.72,14.72,0,0,1-4.54-1.77l1.86-6.63a15.24,15.24,0,0,0,4,1.73,16.54,16.54,0,0,0,4.09.5,5.56,5.56,0,0,0,3.68-1.12,3.91,3.91,0,0,0,1.31-3.15Zm-6.56.06a6.39,6.39,0,0,0-1,3.8,6.27,6.27,0,0,0,1,3.77,3.64,3.64,0,0,0,5.59,0,6.27,6.27,0,0,0,1-3.77,6.39,6.39,0,0,0-1-3.8,3.58,3.58,0,0,0-5.59,0Z"/><path d="M532.83,269.68a1.75,1.75,0,0,0-.54.5,1.21,1.21,0,0,0-.18.68.82.82,0,0,0,.34.68,1.31,1.31,0,0,0,.88.28,4.31,4.31,0,0,0,2.32-.73,5.49,5.49,0,0,0,1.82-1.89,4.75,4.75,0,0,0,.68-2.43H540a16.38,16.38,0,0,1-1.07,6.18,8.69,8.69,0,0,1-3.09,4,8,8,0,0,1-4.7,1.41,6.48,6.48,0,0,1-4.75-1.77,6.3,6.3,0,0,1-1.79-4.68,6.21,6.21,0,0,1,1.16-3.79,13.6,13.6,0,0,1,4.11-3.29l9-5.23,3,4.82ZM537,262.5a5,5,0,0,0-3.45-1.09,11.1,11.1,0,0,0-3.28.57,15.07,15.07,0,0,0-3.36,1.52L525,256.87a16.78,16.78,0,0,1,9-2.18c3.79,0,6.67.89,8.66,2.68s3,4.39,3,7.81V277.9h-7v-7.54l-.45-.63v-4.05A4.15,4.15,0,0,0,537,262.5Z"/><path d="M550,255.19h7v7.36l.45.91V277.9H550Zm14.36,22.71V264.05a2.49,2.49,0,0,0-.79-1.91,3.12,3.12,0,0,0-2.16-.73,3.45,3.45,0,0,0-2,.62,4.12,4.12,0,0,0-1.39,1.68,5.7,5.7,0,0,0-.5,2.43h-1.86c0-3.61.79-6.41,2.38-8.43a8,8,0,0,1,6.66-3,7.11,7.11,0,0,1,7.18,7.18v16Z"/><path d="M576.53,243.83H584v8.5h-7.5ZM584.62,271a2.24,2.24,0,0,0,1.68.59,3.17,3.17,0,0,0,.46,0l.31,0a.2.2,0,0,1,.14,0l.09,6.64a12.09,12.09,0,0,1-2.5.22c-2.75,0-4.82-.69-6.2-2.09s-2.07-3.48-2.07-6.27V255.19H584v14.17A2.28,2.28,0,0,0,584.62,271Z"/><path d="M590.16,260.91h10.09v6.73H590.16Z"/><path d="M55.39,314.84l9.73-.59L55,327.28l-9.73.09Zm-7.85,10.85H65.12v6.73H45.26v-5.05ZM46,309.7H65.12v4.55l-2.73,2.18H46Z"/><path d="M75.88,324.19a1.88,1.88,0,0,0-.54.5,1.25,1.25,0,0,0-.19.69.84.84,0,0,0,.35.68,1.36,1.36,0,0,0,.88.27,4.22,4.22,0,0,0,2.32-.73,5.64,5.64,0,0,0,1.82-1.88,4.75,4.75,0,0,0,.68-2.43h1.86A16.45,16.45,0,0,1,82,327.47a8.8,8.8,0,0,1-3.09,4,8,8,0,0,1-4.7,1.41,6.44,6.44,0,0,1-4.75-1.78,6.91,6.91,0,0,1-.63-8.47,13.76,13.76,0,0,1,4.11-3.29l9-5.22,3,4.81ZM80,317a4.92,4.92,0,0,0-3.46-1.09,11.33,11.33,0,0,0-3.27.56A14.66,14.66,0,0,0,69.93,318L68,311.38a16.76,16.76,0,0,1,9-2.18c3.79,0,6.67.9,8.66,2.68s3,4.4,3,7.82v12.72h-7v-7.54l-.45-.64v-4A4.12,4.12,0,0,0,80,317Z"/><path d="M108.5,316.43H91.74V309.7H108.5ZM95.19,301.75h7.49v21.81a3,3,0,0,0,.55,1.95,2.26,2.26,0,0,0,1.82.64,4.15,4.15,0,0,0,2.18-.68l1.9,5.95a8.84,8.84,0,0,1-5.36,1.5c-2.81,0-5-.68-6.4-2.05A7.61,7.61,0,0,1,95.19,325Z"/><path d="M112.81,298.35h7.5v8.49h-7.5Zm8.09,27.21a2.28,2.28,0,0,0,1.68.59l.45,0,.32,0a.2.2,0,0,1,.14,0l.09,6.63a12,12,0,0,1-2.5.23q-4.12,0-6.2-2.09t-2.07-6.27V309.7h7.5v14.18A2.31,2.31,0,0,0,120.9,325.56Z"/><path d="M127.62,314.88a10.36,10.36,0,0,1,3.93-4.18,11.85,11.85,0,0,1,11.54,0,10.36,10.36,0,0,1,3.93,4.18,14.25,14.25,0,0,1,0,12.36,10.36,10.36,0,0,1-3.93,4.18,11.85,11.85,0,0,1-11.54,0,10.36,10.36,0,0,1-3.93-4.18,14.25,14.25,0,0,1,0-12.36Zm7.09,9.86a3.08,3.08,0,0,0,2.63,1.41,3,3,0,0,0,2.59-1.41,6.21,6.21,0,0,0,1-3.68,6.29,6.29,0,0,0-1-3.7,3,3,0,0,0-2.59-1.43,3.06,3.06,0,0,0-2.63,1.43,6.29,6.29,0,0,0-1,3.7A6.21,6.21,0,0,0,134.71,324.74Z"/><path d="M152.2,309.7h7v7.36l.45.91v14.45H152.2Zm14.35,22.72V318.56a2.47,2.47,0,0,0-.79-1.91,3.1,3.1,0,0,0-2.16-.72,3.44,3.44,0,0,0-2,.61,4.2,4.2,0,0,0-1.39,1.68,5.7,5.7,0,0,0-.5,2.43h-1.86q0-5.4,2.39-8.43a8,8,0,0,1,6.65-3,7.07,7.07,0,0,1,3.64,1,7.14,7.14,0,0,1,3.54,6.22v16Z"/><path d="M178.73,298.35h7.49v3.58a30.13,30.13,0,0,1-.95,5.68.74.74,0,0,1,0,.12.26.26,0,0,0,0,.11l-1.54,6.32-6.77-1.78,1.32-5.08a15.6,15.6,0,0,0,.5-4Z"/><path d="M194.08,332.3a16.71,16.71,0,0,1-4.36-1.61l1.82-6.54a19.15,19.15,0,0,0,4.06,1.52,17.8,17.8,0,0,0,4.21.48,4.42,4.42,0,0,0,1.68-.25.81.81,0,0,0,.54-.75.79.79,0,0,0-.32-.66,2.28,2.28,0,0,0-1-.39l-4.23-.86a8.24,8.24,0,0,1-4.4-2.2,6.28,6.28,0,0,1-1.55-4.52,6.43,6.43,0,0,1,2.53-5.32,10.7,10.7,0,0,1,6.83-2,23.71,23.71,0,0,1,5.11.53,14.35,14.35,0,0,1,3.93,1.38l-1.81,6.54a16.58,16.58,0,0,0-3.39-1.29,14.2,14.2,0,0,0-3.52-.43,4.86,4.86,0,0,0-1.61.2q-.57.21-.57.57a.53.53,0,0,0,.23.45,1.63,1.63,0,0,0,.72.28l4.32.95a8.39,8.39,0,0,1,4.56,2.38,6.54,6.54,0,0,1,1.62,4.62,6.63,6.63,0,0,1-2.57,5.54q-2.57,2-7.65,2A22.59,22.59,0,0,1,194.08,332.3Z"/><path d="M222.47,314.88a10.36,10.36,0,0,1,3.93-4.18,11.85,11.85,0,0,1,11.54,0,10.36,10.36,0,0,1,3.93,4.18,14.25,14.25,0,0,1,0,12.36,10.36,10.36,0,0,1-3.93,4.18,11.85,11.85,0,0,1-11.54,0,10.36,10.36,0,0,1-3.93-4.18,14.34,14.34,0,0,1,0-12.36Zm7.09,9.86a3.09,3.09,0,0,0,2.64,1.41,3,3,0,0,0,2.58-1.41,6.21,6.21,0,0,0,1-3.68,6.29,6.29,0,0,0-1-3.7,3,3,0,0,0-2.58-1.43,3.06,3.06,0,0,0-2.64,1.43,6.29,6.29,0,0,0-1,3.7A6.21,6.21,0,0,0,229.56,324.74Z"/><path d="M245,309.7h8l6.13,22.35-6.95.37Zm16.8,16v6.73h-9.63v-6.73Zm-6.58,6.36,6.13-22.35H269l-7.18,22.72Z"/><path d="M276.06,331.46a10.15,10.15,0,0,1-4.3-4.13,12.65,12.65,0,0,1-1.5-6.27c0-3.73.94-6.63,2.82-8.72a11.26,11.26,0,0,1,15.6,0c1.87,2.09,2.8,5,2.8,8.72v2.86H275.31V318.2h11.17L284,321.06a9.39,9.39,0,0,0-.73-4.32,2.86,2.86,0,0,0-4.81,0,9.39,9.39,0,0,0-.73,4.32,5,5,0,0,0,1.34,3.88,6.26,6.26,0,0,0,4.29,1.21,9.06,9.06,0,0,0,2.93-.39,14.34,14.34,0,0,0,2.11-.93l.05-.05,2.82,6.05a12.4,12.4,0,0,1-3.75,1.56,20.83,20.83,0,0,1-5,.53A13.89,13.89,0,0,1,276.06,331.46Z"/><path d="M295.25,309.7h7v7.95l.45,1v13.77h-7.49Zm16.08,5.18-7.22,4a2.3,2.3,0,0,0-1,1,3.17,3.17,0,0,0-.37,1.55h-1.86a17.83,17.83,0,0,1,1.5-7.7,10.24,10.24,0,0,1,4.41-4.75l.91-.5Z"/><path d="M329.27,316.43H312.51V309.7h16.76ZM316,301.75h7.5v21.81a3,3,0,0,0,.54,1.95,2.27,2.27,0,0,0,1.82.64,4.12,4.12,0,0,0,2.18-.68l1.91,5.95a8.84,8.84,0,0,1-5.36,1.5c-2.82,0-4.95-.68-6.41-2.05A7.64,7.64,0,0,1,316,325Z"/><path d="M333.59,298.35h7.49v8.49h-7.49Zm8.08,27.21a2.32,2.32,0,0,0,1.69.59l.45,0,.32,0a.17.17,0,0,1,.13,0l.1,6.63a12,12,0,0,1-2.5.23q-4.14,0-6.2-2.09t-2.07-6.27V309.7h7.49v14.18A2.31,2.31,0,0,0,341.67,325.56Z"/><path d="M347.67,309.7h7v6.54l.46.5v15.68h-7.5Zm12.08,22.72V317.79a1.76,1.76,0,0,0-.56-1.34,2,2,0,0,0-1.43-.52,2.31,2.31,0,0,0-2,.84,4.36,4.36,0,0,0-.63,2.61H353.3a13.13,13.13,0,0,1,1-5.22,8.78,8.78,0,0,1,2.75-3.64,6.44,6.44,0,0,1,4-1.32,6,6,0,0,1,4.61,1.71,6.64,6.64,0,0,1,1.61,4.74v16.77Zm12.13,0V317.79a1.76,1.76,0,0,0-.56-1.34,2,2,0,0,0-1.44-.52,2.36,2.36,0,0,0-2,.84,4.21,4.21,0,0,0-.66,2.61h-1.82a13.13,13.13,0,0,1,1-5.22,8.73,8.73,0,0,1,2.77-3.64,6.46,6.46,0,0,1,4-1.32,6,6,0,0,1,4.58,1.71,6.56,6.56,0,0,1,1.64,4.74v16.77Z"/><path d="M388.85,331.46a10.18,10.18,0,0,1-4.29-4.13,12.65,12.65,0,0,1-1.5-6.27c0-3.73.94-6.63,2.81-8.72a11.27,11.27,0,0,1,15.61,0c1.86,2.09,2.79,5,2.79,8.72v2.86H388.1V318.2h11.18l-2.46,2.86a9.55,9.55,0,0,0-.72-4.32,2.87,2.87,0,0,0-4.82,0,9.53,9.53,0,0,0-.73,4.32,5,5,0,0,0,1.34,3.88,6.31,6.31,0,0,0,4.3,1.21,9.1,9.1,0,0,0,2.93-.39,14.82,14.82,0,0,0,2.11-.93l0-.05,2.81,6.05a12.4,12.4,0,0,1-3.75,1.56,20.68,20.68,0,0,1-5,.53A13.93,13.93,0,0,1,388.85,331.46Z"/><path d="M417.45,298.35h7.49v8.49h-7.49Zm8.08,27.21a2.31,2.31,0,0,0,1.68.59l.46,0,.32,0a.17.17,0,0,1,.13,0l.09,6.63a12,12,0,0,1-2.5.23q-4.12,0-6.2-2.09c-1.38-1.4-2.06-3.49-2.06-6.27V309.7h7.49v14.18A2.31,2.31,0,0,0,425.53,325.56Z"/><path d="M434.62,332.3a16.58,16.58,0,0,1-4.36-1.61l1.81-6.54a19.22,19.22,0,0,0,4.07,1.52,17.78,17.78,0,0,0,4.2.48,4.35,4.35,0,0,0,1.68-.25.8.8,0,0,0,.55-.75.81.81,0,0,0-.32-.66,2.28,2.28,0,0,0-.95-.39l-4.23-.86a8.23,8.23,0,0,1-4.41-2.2,6.27,6.27,0,0,1-1.54-4.52,6.45,6.45,0,0,1,2.52-5.32,10.73,10.73,0,0,1,6.84-2,23.78,23.78,0,0,1,5.11.53,14.35,14.35,0,0,1,3.93,1.38l-1.82,6.54a16.5,16.5,0,0,0-3.38-1.29,14.2,14.2,0,0,0-3.52-.43,4.92,4.92,0,0,0-1.62.2q-.57.21-.57.57a.56.56,0,0,0,.23.45,1.68,1.68,0,0,0,.73.28l4.31.95a8.46,8.46,0,0,1,4.57,2.38,6.54,6.54,0,0,1,1.61,4.62,6.62,6.62,0,0,1-2.56,5.54q-2.58,2-7.66,2A22.44,22.44,0,0,1,434.62,332.3Z"/><path d="M462.28,298.35h7.5v34.07h-7.5Zm14.36,34.07V318.56a2.48,2.48,0,0,0-.8-1.91,3.1,3.1,0,0,0-2.16-.72,3.46,3.46,0,0,0-2,.61,4.1,4.1,0,0,0-1.38,1.68,5.56,5.56,0,0,0-.5,2.43h-1.86q0-5.4,2.38-8.43a8,8,0,0,1,6.66-3,7.1,7.1,0,0,1,7.17,7.18v16Z"/><path d="M488.81,298.35h7.5v8.49h-7.5Zm8.09,27.21a2.28,2.28,0,0,0,1.68.59l.45,0,.32,0a.2.2,0,0,1,.14,0l.09,6.63a12,12,0,0,1-2.5.23c-2.76,0-4.82-.7-6.2-2.09s-2.07-3.49-2.07-6.27V309.7h7.5v14.18A2.27,2.27,0,0,0,496.9,325.56Z"/><path d="M503.3,314.84a9.49,9.49,0,0,1,3.07-4.16,7.45,7.45,0,0,1,4.56-1.48,7,7,0,0,1,6.14,3q2,2.94,2,8.9t-2,8.9a7,7,0,0,1-6.14,3,7.48,7.48,0,0,1-4.54-1.48,9.45,9.45,0,0,1-3.09-4.18,18.23,18.23,0,0,1,0-12.42Zm13.95,2.36.45-.77V309.7h7v21.76q0,5-3.15,7.79c-2.11,1.84-5.14,2.75-9.11,2.75a26.7,26.7,0,0,1-5.63-.54,15.41,15.41,0,0,1-4.55-1.77l1.87-6.64a14.86,14.86,0,0,0,4,1.73,16.6,16.6,0,0,0,4.09.5,5.54,5.54,0,0,0,3.68-1.11,3.92,3.92,0,0,0,1.32-3.16Zm-6.57.07a6.34,6.34,0,0,0-1,3.79,6.25,6.25,0,0,0,1,3.77,3.62,3.62,0,0,0,5.59,0,6.25,6.25,0,0,0,1-3.77,6.34,6.34,0,0,0-1-3.79,3.58,3.58,0,0,0-5.59,0Z"/><path d="M529.2,298.35h7.49v34.07H529.2Zm14.35,34.07V318.56a2.47,2.47,0,0,0-.79-1.91,3.1,3.1,0,0,0-2.16-.72,3.44,3.44,0,0,0-2,.61,4.12,4.12,0,0,0-1.39,1.68,5.7,5.7,0,0,0-.5,2.43h-1.86q0-5.4,2.38-8.43a8,8,0,0,1,6.66-3,7.12,7.12,0,0,1,7.18,7.18v16Z"/><path d="M560.52,331.46a10.18,10.18,0,0,1-4.29-4.13,12.65,12.65,0,0,1-1.5-6.27c0-3.73.93-6.63,2.81-8.72a11.27,11.27,0,0,1,15.61,0c1.86,2.09,2.79,5,2.79,8.72v2.86H559.77V318.2H571l-2.46,2.86a9.39,9.39,0,0,0-.73-4.32,2.86,2.86,0,0,0-4.81,0,9.39,9.39,0,0,0-.73,4.32,5,5,0,0,0,1.34,3.88,6.31,6.31,0,0,0,4.3,1.21,9.1,9.1,0,0,0,2.93-.39,14.82,14.82,0,0,0,2.11-.93l0-.05,2.82,6.05a12.4,12.4,0,0,1-3.75,1.56,20.74,20.74,0,0,1-5,.53A13.9,13.9,0,0,1,560.52,331.46Z"/><path d="M579.71,309.7h7v7.95l.46,1v13.77h-7.5Zm16.08,5.18-7.22,4a2.35,2.35,0,0,0-1,1,3.28,3.28,0,0,0-.36,1.55h-1.86a17.83,17.83,0,0,1,1.49-7.7,10.24,10.24,0,0,1,4.41-4.75l.91-.5Z"/><path d="M61.62,370.94H44.86v-6.72H61.62ZM48.31,356.27H55.8v21.8a3,3,0,0,0,.55,2,2.29,2.29,0,0,0,1.82.63,4.15,4.15,0,0,0,2.18-.68l1.9,5.95a8.84,8.84,0,0,1-5.36,1.5c-2.81,0-5-.68-6.4-2a7.64,7.64,0,0,1-2.18-5.86Z"/><path d="M65.62,352.86h7.49v34.07H65.62ZM80,386.93V373.07a2.48,2.48,0,0,0-.79-1.9,3.06,3.06,0,0,0-2.16-.73,3.44,3.44,0,0,0-2,.61,4.12,4.12,0,0,0-1.39,1.68,5.77,5.77,0,0,0-.5,2.43H71.25q0-5.4,2.38-8.42a8,8,0,0,1,6.66-3,7.11,7.11,0,0,1,7.18,7.17v16Z"/><path d="M99.05,378.71a1.93,1.93,0,0,0-.55.5,1.21,1.21,0,0,0-.18.68.86.86,0,0,0,.34.68,1.41,1.41,0,0,0,.89.27,4.29,4.29,0,0,0,2.32-.72,5.64,5.64,0,0,0,1.81-1.89,4.66,4.66,0,0,0,.68-2.43h1.87a16.45,16.45,0,0,1-1.07,6.18,8.74,8.74,0,0,1-3.09,4,8,8,0,0,1-4.7,1.41,6.48,6.48,0,0,1-4.75-1.77A6.3,6.3,0,0,1,90.83,381,6.14,6.14,0,0,1,92,377.19a13.61,13.61,0,0,1,4.11-3.3l9-5.22,3,4.81Zm4.13-7.18a4.88,4.88,0,0,0-3.45-1.09,11,11,0,0,0-3.27.57,14.63,14.63,0,0,0-3.36,1.52l-1.91-6.63a16.67,16.67,0,0,1,9-2.18q5.68,0,8.65,2.68c2,1.78,3,4.39,3,7.81v12.72h-7v-7.54l-.46-.64v-4A4.11,4.11,0,0,0,103.18,371.53Z"/><path d="M116.22,364.22h7v7.36l.46.9v14.45h-7.5Zm14.36,22.71V373.07a2.45,2.45,0,0,0-.8-1.9,3.06,3.06,0,0,0-2.16-.73,3.46,3.46,0,0,0-2,.61,4.1,4.1,0,0,0-1.38,1.68,5.62,5.62,0,0,0-.5,2.43h-1.87q0-5.4,2.39-8.42a8,8,0,0,1,6.65-3,7,7,0,0,1,3.64.95,7.09,7.09,0,0,1,3.54,6.22v16Z"/><path d="M149.84,364.22h8.08l6.14,20.35-6.55.86Zm15.53,26a8.74,8.74,0,0,1-2.72,2.13l-8.13,4.36-3.41-6.54,8.68-4.27a1,1,0,0,0,.54-.36,4.11,4.11,0,0,0,.32-.78v-.11a.15.15,0,0,1,0-.11l6.59-20.35H175l-8,23A10.78,10.78,0,0,1,165.37,390.25Zm-.5-11.54v6.72h-7.36v-6.72Z"/><path d="M178.05,369.39a10.4,10.4,0,0,1,3.93-4.17,11.85,11.85,0,0,1,11.54,0,10.4,10.4,0,0,1,3.93,4.17,14.34,14.34,0,0,1,0,12.36,10.36,10.36,0,0,1-3.93,4.18,11.85,11.85,0,0,1-11.54,0,10.36,10.36,0,0,1-3.93-4.18,14.25,14.25,0,0,1,0-12.36Zm7.08,9.86a3.1,3.1,0,0,0,2.64,1.41,3.05,3.05,0,0,0,2.59-1.41,6.26,6.26,0,0,0,1-3.68,6.37,6.37,0,0,0-1-3.7,3,3,0,0,0-2.59-1.43,3.1,3.1,0,0,0-2.64,1.43,6.37,6.37,0,0,0-1,3.7A6.26,6.26,0,0,0,185.13,379.25Z"/><path d="M210,364.22v13.85a2.4,2.4,0,0,0,.79,1.89,3.14,3.14,0,0,0,2.16.7,3.58,3.58,0,0,0,2-.59,4,4,0,0,0,1.39-1.66,5.7,5.7,0,0,0,.5-2.43h1.86c0,3.61-.8,6.41-2.39,8.43a8,8,0,0,1-6.65,3,7.09,7.09,0,0,1-6.22-3.54,7,7,0,0,1-1-3.64v-16Zm14.35,22.71h-7v-7.4l-.45-.55V364.22h7.49Z"/><path d="M228.83,364.22h7v7.95l.45,1v13.76h-7.5Zm16.09,5.17-7.23,4.05a2.3,2.3,0,0,0-1,1,3.24,3.24,0,0,0-.36,1.54h-1.86a17.86,17.86,0,0,1,1.5-7.7,10.27,10.27,0,0,1,4.4-4.75l.91-.5Z"/><path d="M256.82,352.86h7.49v8.49h-7.49Zm8.08,27.21a2.31,2.31,0,0,0,1.68.59l.46,0a1.89,1.89,0,0,1,.32,0,.17.17,0,0,1,.13-.05l.09,6.63a11.93,11.93,0,0,1-2.49.23q-4.14,0-6.21-2.09t-2.06-6.27V364.22h7.49v14.17A2.28,2.28,0,0,0,264.9,380.07Z"/><path d="M270.9,364.22h7v7.36l.46.9v14.45h-7.5Zm14.35,22.71V373.07a2.45,2.45,0,0,0-.79-1.9,3.06,3.06,0,0,0-2.16-.73,3.44,3.44,0,0,0-2,.61,4.2,4.2,0,0,0-1.39,1.68,5.77,5.77,0,0,0-.49,2.43h-1.87q0-5.4,2.39-8.42a8,8,0,0,1,6.65-3,7.06,7.06,0,0,1,3.64.95,7.09,7.09,0,0,1,3.54,6.22v16Z"/><path d="M297.52,369.35a9.54,9.54,0,0,1,3.07-4.16,7.43,7.43,0,0,1,4.56-1.47,7,7,0,0,1,6.13,2.95q2.06,3,2.05,8.9t-2.05,8.91a7,7,0,0,1-6.13,2.95,7.42,7.42,0,0,1-4.54-1.48,9.39,9.39,0,0,1-3.09-4.18,18.23,18.23,0,0,1,0-12.42Zm13,10a6.23,6.23,0,0,0,1-3.77,6.36,6.36,0,0,0-1-3.79,3.58,3.58,0,0,0-5.59,0,6.36,6.36,0,0,0-1,3.79,6.23,6.23,0,0,0,1,3.77,3.62,3.62,0,0,0,5.59,0Zm8.47,7.59h-7v-6.31l-.45-.64V352.86H319Z"/><path d="M330.82,364.22v13.85a2.4,2.4,0,0,0,.79,1.89,3.14,3.14,0,0,0,2.16.7,3.58,3.58,0,0,0,2-.59,4,4,0,0,0,1.39-1.66,5.7,5.7,0,0,0,.5-2.43h1.86c0,3.61-.8,6.41-2.39,8.43a8,8,0,0,1-6.65,3,7.09,7.09,0,0,1-6.22-3.54,7,7,0,0,1-1-3.64v-16Zm14.35,22.71h-7v-7.4l-.45-.55V364.22h7.49Z"/><path d="M352.71,386.82a16.71,16.71,0,0,1-4.36-1.62l1.82-6.54a18.5,18.5,0,0,0,4.07,1.52,17.66,17.66,0,0,0,4.2.48,4.2,4.2,0,0,0,1.68-.25.82.82,0,0,0,.23-1.41,2.49,2.49,0,0,0-1-.38l-4.22-.87a8.16,8.16,0,0,1-4.41-2.2,6.26,6.26,0,0,1-1.54-4.52,6.43,6.43,0,0,1,2.52-5.31,10.66,10.66,0,0,1,6.83-2,23.72,23.72,0,0,1,5.11.52,14.69,14.69,0,0,1,3.93,1.38l-1.81,6.55a15.86,15.86,0,0,0-3.39-1.3,14.14,14.14,0,0,0-3.52-.43,5.18,5.18,0,0,0-1.61.2q-.57.21-.57.57a.58.58,0,0,0,.23.46,1.64,1.64,0,0,0,.73.27l4.31.95a8.47,8.47,0,0,1,4.57,2.39,6.54,6.54,0,0,1,1.61,4.61,6.63,6.63,0,0,1-2.57,5.54q-2.56,2-7.65,2A22.58,22.58,0,0,1,352.71,386.82Z"/><path d="M386.74,370.94H370v-6.72h16.76Zm-13.31-14.67h7.49v21.8a3,3,0,0,0,.55,2,2.29,2.29,0,0,0,1.82.63,4.15,4.15,0,0,0,2.18-.68l1.9,5.95a8.84,8.84,0,0,1-5.36,1.5c-2.81,0-4.95-.68-6.4-2a7.64,7.64,0,0,1-2.18-5.86Z"/><path d="M390.74,364.22h7v7.95l.45,1v13.76h-7.49Zm16.08,5.17-7.23,4.05a2.3,2.3,0,0,0-1,1,3.24,3.24,0,0,0-.36,1.54h-1.86a17.86,17.86,0,0,1,1.5-7.7,10.32,10.32,0,0,1,4.4-4.75l.91-.5Z"/><path d="M407.63,364.22h8.09l6.13,20.35-6.54.86Zm15.54,26a8.86,8.86,0,0,1-2.72,2.13l-8.14,4.36-3.4-6.54,8.67-4.27a.94.94,0,0,0,.55-.36,4.91,4.91,0,0,0,.32-.78v-.11a.15.15,0,0,1,0-.11l6.59-20.35h7.72l-8,23A10.78,10.78,0,0,1,423.17,390.25Zm-.5-11.54v6.72h-7.36v-6.72Z"/><path d="M451.88,378.71a1.75,1.75,0,0,0-.54.5,1.14,1.14,0,0,0-.19.68.86.86,0,0,0,.34.68,1.41,1.41,0,0,0,.89.27,4.29,4.29,0,0,0,2.32-.72,5.64,5.64,0,0,0,1.81-1.89,4.67,4.67,0,0,0,.69-2.43h1.86A16.45,16.45,0,0,1,458,382a8.74,8.74,0,0,1-3.09,4,8,8,0,0,1-4.7,1.41,6.48,6.48,0,0,1-4.75-1.77,6.3,6.3,0,0,1-1.79-4.68,6.14,6.14,0,0,1,1.16-3.79,13.61,13.61,0,0,1,4.11-3.3l9-5.22,3,4.81Zm4.13-7.18a4.88,4.88,0,0,0-3.45-1.09,11,11,0,0,0-3.27.57,14.63,14.63,0,0,0-3.36,1.52L444,365.9a16.67,16.67,0,0,1,9-2.18c3.79,0,6.67.89,8.66,2.68s3,4.39,3,7.81v12.72h-7v-7.54l-.45-.64v-4A4.12,4.12,0,0,0,456,371.53Z"/><path d="M467.46,364.22h8l6.13,22.35-6.95.36Zm16.81,16v6.72h-9.63v-6.72Zm-6.59,6.36,6.14-22.35h7.63l-7.18,22.71Z"/><path d="M498.51,386a10.2,10.2,0,0,1-4.29-4.14,12.59,12.59,0,0,1-1.5-6.27q0-5.58,2.82-8.72a11.28,11.28,0,0,1,15.6,0c1.86,2.09,2.8,5,2.8,8.72v2.86H497.76v-5.72h11.18l-2.45,2.86a9.48,9.48,0,0,0-.73-4.31,2.86,2.86,0,0,0-4.82,0,9.5,9.5,0,0,0-.72,4.31,5,5,0,0,0,1.34,3.89,6.32,6.32,0,0,0,4.29,1.2,9.06,9.06,0,0,0,2.93-.39,12.86,12.86,0,0,0,2.11-.93l.05,0,2.81,6a12.46,12.46,0,0,1-3.74,1.57,20.87,20.87,0,0,1-5,.52A13.93,13.93,0,0,1,498.51,386Z"/><path d="M517.7,364.22h7v7.95l.45,1v13.76h-7.5Zm16.09,5.17-7.23,4.05a2.3,2.3,0,0,0-1,1,3.24,3.24,0,0,0-.36,1.54h-1.86a17.86,17.86,0,0,1,1.5-7.7,10.32,10.32,0,0,1,4.4-4.75l.91-.5Z"/><path d="M535.83,369.94h10.09v6.72H535.83Z"/><path d="M53.4,433.22a1.69,1.69,0,0,0-.55.5,1.21,1.21,0,0,0-.18.68.83.83,0,0,0,.34.68,1.39,1.39,0,0,0,.89.28,4.3,4.3,0,0,0,2.31-.73A5.58,5.58,0,0,0,58,432.74a4.75,4.75,0,0,0,.68-2.43h1.86a16.38,16.38,0,0,1-1.06,6.18,8.82,8.82,0,0,1-3.09,4,8,8,0,0,1-4.71,1.41A6.45,6.45,0,0,1,47,440.17a6.89,6.89,0,0,1-.64-8.47,13.6,13.6,0,0,1,4.11-3.29l9-5.23,3,4.82ZM57.53,426A5,5,0,0,0,54.08,425a11,11,0,0,0-3.27.57A14.94,14.94,0,0,0,47.44,427l-1.9-6.63a16.73,16.73,0,0,1,9-2.18c3.78,0,6.67.89,8.65,2.68s3,4.39,3,7.81v12.72h-7V433.9l-.45-.63v-4A4.11,4.11,0,0,0,57.53,426Z"/><path d="M71,423.86A9.42,9.42,0,0,1,74,419.71a7.4,7.4,0,0,1,4.57-1.48,7,7,0,0,1,6.13,2.95q2,3,2,8.91t-2,8.9a7,7,0,0,1-6.13,2.95,7.5,7.5,0,0,1-4.55-1.47A9.42,9.42,0,0,1,71,436.29a18.11,18.11,0,0,1,0-12.43Zm13.94,2.36.46-.77v-6.72h7v21.76a9.79,9.79,0,0,1-3.16,7.79c-2.11,1.83-5.14,2.75-9.11,2.75a26,26,0,0,1-5.63-.55A14.72,14.72,0,0,1,70,448.71l1.86-6.63a15.1,15.1,0,0,0,4,1.73,16.52,16.52,0,0,0,4.08.49,5.52,5.52,0,0,0,3.68-1.11A3.89,3.89,0,0,0,84.92,440Zm-6.56.07a6.39,6.39,0,0,0-1,3.8,6.27,6.27,0,0,0,1,3.77,3.64,3.64,0,0,0,5.59,0,6.27,6.27,0,0,0,1-3.77,6.39,6.39,0,0,0-1-3.8,3.58,3.58,0,0,0-5.59,0Z"/><path d="M102,440.49a10.24,10.24,0,0,1-4.29-4.13,12.65,12.65,0,0,1-1.5-6.27q0-5.59,2.81-8.73a10,10,0,0,1,7.82-3.13,9.89,9.89,0,0,1,7.79,3.13q2.79,3.13,2.79,8.73V433H101.23v-5.73H112.4L110,430.09a9.55,9.55,0,0,0-.72-4.32,2.86,2.86,0,0,0-4.82,0,9.53,9.53,0,0,0-.73,4.32A5,5,0,0,0,105,434a6.37,6.37,0,0,0,4.3,1.2,9.13,9.13,0,0,0,2.93-.38,14.82,14.82,0,0,0,2.11-.93l0-.05,2.82,6a12.41,12.41,0,0,1-3.75,1.57,20.78,20.78,0,0,1-5,.52A13.9,13.9,0,0,1,102,440.49Z"/><path d="M121.49,441.44v-8H129v8Z"/><text class="cls-5" transform="translate(90.42 551.73)"><tspan class="cls-19">O</tspan><tspan class="cls-20" x="29" y="0">VE</tspan><tspan class="cls-21" x="83.11" y="0">R</tspan><tspan x="108.17" y="0">TIME R</tspan><tspan class="cls-22" x="239.59" y="0">A</tspan><tspan class="cls-20" x="265.18" y="0">TE</tspan></text><text class="cls-23" transform="translate(49 638.81)">Cur<tspan class="cls-24" x="48.08" y="0">r</tspan><tspan x="59.53" y="0">ent </tspan><tspan class="cls-25" x="0" y="38.16">Y</tspan><tspan x="16.57" y="38.16">ear</tspan></text><text class="cls-23" transform="translate(271.6 638.81)">Internal<tspan x="0" y="38.16">Benchmark</tspan></text><text class="cls-23" transform="translate(448.77 638.81)">ADP<tspan x="0" y="38.16">Benchmark</tspan></text><g id="o8ifTb"><path d="M59.88,551.82a15.91,15.91,0,1,1,15.88-15.93A15.84,15.84,0,0,1,59.88,551.82Zm.09-29.7a13.77,13.77,0,1,0,13.68,13.82A13.69,13.69,0,0,0,60,522.12Z"/><path d="M61.46,537.41c0,1.32,0,2.65,0,4,0,.45.12.64.61.65.67,0,.9.35.88,1.11s-.29.93-1,.94H57.74c-.7,0-.94-.28-1-1s.2-1,.92-1.06c.46,0,.57-.22.57-.63q0-3.2,0-6.37c0-.41-.1-.62-.56-.65-.71,0-.94-.36-.93-1.09s.26-1,.93-1q1.39-.06,2.79,0c.67,0,.94.38,1,1.16,0,1.32,0,2.65,0,4Z"/><path d="M59.87,530.77a2.06,2.06,0,1,1,2.06-2A2,2,0,0,1,59.87,530.77Z"/></g><text class="cls-26" transform="translate(47.02 787.26)">11.4%</text><text class="cls-27" transform="translate(271.6 787.26)">8.3%</text><text class="cls-28" transform="translate(448.77 787.26)">6.2%</text><path d="M72.86,834.07h-23v-7.72h23Zm-7.41-7.72v34.07H57.27V826.35Z"/><path d="M75.35,826.35h7.5v8.49h-7.5Zm8.09,27.21a2.28,2.28,0,0,0,1.68.59l.46,0,.31,0a.2.2,0,0,1,.14,0l.09,6.63a12,12,0,0,1-2.5.23q-4.12,0-6.2-2.09t-2.07-6.27V837.7h7.5v14.18A2.31,2.31,0,0,0,83.44,853.56Z"/><path d="M89.44,837.7h7v6.54l.45.5v15.68H89.44Zm12.08,22.72V845.79a1.73,1.73,0,0,0-.57-1.34,2,2,0,0,0-1.43-.52,2.28,2.28,0,0,0-2,.84,4.29,4.29,0,0,0-.64,2.61H95.07a13,13,0,0,1,1-5.22,8.78,8.78,0,0,1,2.75-3.64,6.41,6.41,0,0,1,4-1.32,6,6,0,0,1,4.61,1.71,6.6,6.6,0,0,1,1.62,4.74v16.77Zm12.13,0V845.79a1.73,1.73,0,0,0-.57-1.34,2,2,0,0,0-1.43-.52,2.36,2.36,0,0,0-2,.84,4.28,4.28,0,0,0-.65,2.61H107.2a13,13,0,0,1,1-5.22,8.65,8.65,0,0,1,2.77-3.64,6.46,6.46,0,0,1,4-1.32,6,6,0,0,1,4.59,1.71,6.56,6.56,0,0,1,1.64,4.74v16.77Z"/><path d="M130.62,859.46a10.15,10.15,0,0,1-4.3-4.13,12.65,12.65,0,0,1-1.5-6.27q0-5.58,2.82-8.72a11.27,11.27,0,0,1,15.61,0q2.79,3.13,2.79,8.72v2.86H129.87V846.2H141l-2.45,2.86a9.39,9.39,0,0,0-.73-4.32,2.86,2.86,0,0,0-4.81,0,9.39,9.39,0,0,0-.73,4.32,5,5,0,0,0,1.34,3.88,6.26,6.26,0,0,0,4.29,1.21,9.06,9.06,0,0,0,2.93-.39,13.47,13.47,0,0,0,2.12-.93l0,0,2.82,6a12.4,12.4,0,0,1-3.75,1.56,20.8,20.8,0,0,1-5,.53A13.9,13.9,0,0,1,130.62,859.46Z"/><path d="M178,826.35v34.07H169.8V826.35ZM193.1,856a10.43,10.43,0,0,1-9,4.43h-8.82v-7.73h7.36a4.45,4.45,0,0,0,4-2.47,16.73,16.73,0,0,0,0-13.67,4.44,4.44,0,0,0-4-2.48h-7.36v-7.72h8.82a10.4,10.4,0,0,1,9,4.43q3.18,4.43,3.18,12.6T193.1,856Z"/><path d="M205.62,859.46a10.2,10.2,0,0,1-4.3-4.13,12.75,12.75,0,0,1-1.49-6.27c0-3.72.93-6.63,2.81-8.72a11.27,11.27,0,0,1,15.61,0q2.79,3.13,2.79,8.72v2.86H204.87V846.2H216l-2.45,2.86a9.39,9.39,0,0,0-.73-4.32,2.86,2.86,0,0,0-4.81,0,9.39,9.39,0,0,0-.73,4.32,5,5,0,0,0,1.34,3.88,6.28,6.28,0,0,0,4.29,1.21,9,9,0,0,0,2.93-.39,13.47,13.47,0,0,0,2.12-.93l0,0,2.82,6a12.4,12.4,0,0,1-3.75,1.56,20.8,20.8,0,0,1-5,.53A13.9,13.9,0,0,1,205.62,859.46Z"/><path d="M224.81,837.7h7v6.41l.46.41v25h-7.5Zm21.44,17.56a9.3,9.3,0,0,1-3.09,4.18,7.46,7.46,0,0,1-4.54,1.48,7,7,0,0,1-6.13-3q-2.06-2.94-2.05-8.9c0-4,.68-6.93,2.05-8.9a7,7,0,0,1,6.13-3,7.46,7.46,0,0,1,4.57,1.48,9.47,9.47,0,0,1,3.06,4.16,18.23,18.23,0,0,1,0,12.42Zm-13-10a6.36,6.36,0,0,0-1,3.79,6.25,6.25,0,0,0,1,3.77,3.62,3.62,0,0,0,5.59,0,6.25,6.25,0,0,0,1-3.77,6.36,6.36,0,0,0-1-3.79,3.58,3.58,0,0,0-5.59,0Z"/><path d="M266.56,844.43H249.8V837.7h16.76Zm-13.31-14.68h7.49v21.81a3,3,0,0,0,.55,2,2.26,2.26,0,0,0,1.82.64,4.15,4.15,0,0,0,2.18-.68l1.9,5.95a8.84,8.84,0,0,1-5.36,1.5c-2.81,0-4.95-.68-6.4-2a7.61,7.61,0,0,1-2.18-5.86Z"/><path class="cls-7" d="M300.63,826.35v34.07h-8.18V826.35Zm13.17,34.07h-17v-7.73h17Z"/><path class="cls-7" d="M317.62,842.88a10.42,10.42,0,0,1,3.93-4.18,11.85,11.85,0,0,1,11.54,0,10.42,10.42,0,0,1,3.93,4.18,14.25,14.25,0,0,1,0,12.36,10.36,10.36,0,0,1-3.93,4.18,11.85,11.85,0,0,1-11.54,0,10.36,10.36,0,0,1-3.93-4.18,14.25,14.25,0,0,1,0-12.36Zm7.09,9.86a3.12,3.12,0,0,0,5.22,0,6.21,6.21,0,0,0,1-3.68,6.29,6.29,0,0,0-1-3.7,3.1,3.1,0,0,0-5.22,0,6.29,6.29,0,0,0-1,3.7A6.21,6.21,0,0,0,324.71,852.74Z"/><path class="cls-7" d="M350.26,852.79a4.5,4.5,0,0,0,3.47,1.36,5.67,5.67,0,0,0,4.36-1.82l2.82,5.91a8.51,8.51,0,0,1-3.36,2,14.57,14.57,0,0,1-4.59.68q-5.4,0-8.43-3.14c-2-2.09-3-5-3-8.72s1-6.63,3-8.72,4.83-3.14,8.43-3.14a14.28,14.28,0,0,1,4.59.69,8.49,8.49,0,0,1,3.36,2l-2.82,5.91a5.6,5.6,0,0,0-4.36-1.86,4.47,4.47,0,0,0-3.45,1.38,6.18,6.18,0,0,0,0,7.48Z"/><path class="cls-7" d="M371.5,852.19a1.81,1.81,0,0,0-.55.5,1.24,1.24,0,0,0-.18.69.83.83,0,0,0,.34.68,1.39,1.39,0,0,0,.89.27,4.22,4.22,0,0,0,2.31-.73,5.46,5.46,0,0,0,1.82-1.88,4.75,4.75,0,0,0,.68-2.43h1.86a16.46,16.46,0,0,1-1.06,6.18,8.93,8.93,0,0,1-3.09,4,8,8,0,0,1-4.71,1.41,6.42,6.42,0,0,1-4.74-1.78,6.89,6.89,0,0,1-.64-8.47,13.76,13.76,0,0,1,4.11-3.29l9-5.22,2.95,4.81Zm4.13-7.17a4.91,4.91,0,0,0-3.45-1.09,11.33,11.33,0,0,0-3.27.56,14.54,14.54,0,0,0-3.37,1.53l-1.9-6.64a16.73,16.73,0,0,1,9-2.18c3.78,0,6.67.9,8.65,2.68s3,4.4,3,7.82v12.72h-7.05v-7.54l-.45-.64v-4A4.08,4.08,0,0,0,375.63,845Z"/><path class="cls-7" d="M404.11,844.43H387.35V837.7h16.76ZM390.8,829.75h7.5v21.81a3,3,0,0,0,.54,2,2.27,2.27,0,0,0,1.82.64,4.12,4.12,0,0,0,2.18-.68l1.91,5.95a8.86,8.86,0,0,1-5.36,1.5c-2.82,0-4.95-.68-6.41-2A7.64,7.64,0,0,1,390.8,853Z"/><path class="cls-7" d="M408.43,826.35h7.49v8.49h-7.49Zm8.08,27.21a2.31,2.31,0,0,0,1.68.59l.46,0,.32,0a.17.17,0,0,1,.13,0l.09,6.63a11.93,11.93,0,0,1-2.49.23q-4.14,0-6.21-2.09t-2.06-6.27V837.7h7.49v14.18A2.31,2.31,0,0,0,416.51,853.56Z"/><path class="cls-7" d="M423.24,842.88a10.36,10.36,0,0,1,3.93-4.18,11.83,11.83,0,0,1,11.53,0,10.42,10.42,0,0,1,3.93,4.18,14.25,14.25,0,0,1,0,12.36,10.36,10.36,0,0,1-3.93,4.18,11.83,11.83,0,0,1-11.53,0,10.29,10.29,0,0,1-3.93-4.18,14.25,14.25,0,0,1,0-12.36Zm7.08,9.86a3.1,3.1,0,0,0,2.64,1.41,3.05,3.05,0,0,0,2.59-1.41,6.28,6.28,0,0,0,1-3.68,6.37,6.37,0,0,0-1-3.7,3,3,0,0,0-2.59-1.43,3.07,3.07,0,0,0-2.64,1.43,6.37,6.37,0,0,0-1,3.7A6.28,6.28,0,0,0,430.32,852.74Z"/><path class="cls-7" d="M447.81,837.7h7v7.36l.46.91v14.45h-7.5Zm14.36,22.72V846.56a2.48,2.48,0,0,0-.8-1.91,3.1,3.1,0,0,0-2.16-.72,3.46,3.46,0,0,0-2,.61,4.1,4.1,0,0,0-1.38,1.68,5.56,5.56,0,0,0-.5,2.43h-1.86q0-5.4,2.38-8.43a8,8,0,0,1,6.66-3,7.12,7.12,0,0,1,6.22,3.55,7.13,7.13,0,0,1,1,3.63v16Z"/><path class="cls-7" d="M477.11,860.3a16.71,16.71,0,0,1-4.36-1.61l1.82-6.54a19.15,19.15,0,0,0,4.06,1.52,17.8,17.8,0,0,0,4.21.48,4.42,4.42,0,0,0,1.68-.25.81.81,0,0,0,.54-.75.79.79,0,0,0-.32-.66,2.28,2.28,0,0,0-.95-.39l-4.22-.86a8.23,8.23,0,0,1-4.41-2.2,6.28,6.28,0,0,1-1.55-4.52,6.47,6.47,0,0,1,2.53-5.32,10.72,10.72,0,0,1,6.83-2,23.71,23.71,0,0,1,5.11.53,14.35,14.35,0,0,1,3.93,1.38l-1.81,6.54a16.58,16.58,0,0,0-3.39-1.29,14.14,14.14,0,0,0-3.52-.43,5.14,5.14,0,0,0-1.61.2q-.57.21-.57.57a.56.56,0,0,0,.23.45,1.52,1.52,0,0,0,.72.28l4.32,1a8.46,8.46,0,0,1,4.57,2.38,7.33,7.33,0,0,1-1,10.16q-2.57,2-7.65,2A22.59,22.59,0,0,1,477.11,860.3Z"/><path d="M533.79,855.38a9.07,9.07,0,0,1-3.48,3.31l-4.18,2.45-4-6.9,2.68-1.59a3.94,3.94,0,0,0,1.43-1.48,5.06,5.06,0,0,0,.43-2.25V826.35h8.18v24.3A9.62,9.62,0,0,1,533.79,855.38Z"/><path d="M540.72,842.88a10.29,10.29,0,0,1,3.93-4.18,11.83,11.83,0,0,1,11.53,0,10.42,10.42,0,0,1,3.93,4.18,14.25,14.25,0,0,1,0,12.36,10.36,10.36,0,0,1-3.93,4.18,11.83,11.83,0,0,1-11.53,0,10.23,10.23,0,0,1-3.93-4.18,14.25,14.25,0,0,1,0-12.36Zm7.08,9.86a3.1,3.1,0,0,0,2.64,1.41,3.05,3.05,0,0,0,2.59-1.41,6.28,6.28,0,0,0,1-3.68,6.37,6.37,0,0,0-1-3.7,3,3,0,0,0-2.59-1.43,3.07,3.07,0,0,0-2.64,1.43,6.37,6.37,0,0,0-1,3.7A6.28,6.28,0,0,0,547.8,852.74Z"/><path d="M572.79,826.35v26.84l-.46.37v6.86h-7V826.35Zm13.94,28.91a9.36,9.36,0,0,1-3.08,4.18,7.51,7.51,0,0,1-4.55,1.48,7,7,0,0,1-6.13-3q-2-2.94-2-8.9c0-4,.68-6.93,2-8.9a7,7,0,0,1,6.13-3,7.46,7.46,0,0,1,4.57,1.48,9.39,9.39,0,0,1,3.06,4.16,18.23,18.23,0,0,1,0,12.42Zm-7.38-2.43a6.25,6.25,0,0,0,1-3.77,6.36,6.36,0,0,0-1-3.79,3.58,3.58,0,0,0-5.59,0,6.36,6.36,0,0,0-1,3.79,6.25,6.25,0,0,0,1,3.77,3.62,3.62,0,0,0,5.59,0Z"/><path d="M594.68,860.3a16.71,16.71,0,0,1-4.36-1.61l1.82-6.54a19.15,19.15,0,0,0,4.06,1.52,17.8,17.8,0,0,0,4.21.48,4.42,4.42,0,0,0,1.68-.25.82.82,0,0,0,.23-1.41,2.39,2.39,0,0,0-1-.39l-4.22-.86a8.23,8.23,0,0,1-4.41-2.2,6.27,6.27,0,0,1-1.54-4.52,6.46,6.46,0,0,1,2.52-5.32,10.72,10.72,0,0,1,6.83-2,23.71,23.71,0,0,1,5.11.53,14.35,14.35,0,0,1,3.93,1.38l-1.81,6.54a16.36,16.36,0,0,0-3.39-1.29,14.14,14.14,0,0,0-3.52-.43,5.14,5.14,0,0,0-1.61.2q-.57.21-.57.57a.56.56,0,0,0,.23.45,1.52,1.52,0,0,0,.72.28l4.32,1a8.46,8.46,0,0,1,4.57,2.38,7.33,7.33,0,0,1-1,10.16q-2.56,2-7.65,2A22.59,22.59,0,0,1,594.68,860.3Z"/><line class="cls-29" x1="7.62" y1="892.12" x2="648.15" y2="892.12"/><rect class="cls-7" x="282.46" y="880.76" width="190.8" height="9.09"/><path d="M61.8,957.47c2.37-3,5.86-4.43,10.5-4.43s8.13,1.48,10.49,4.43,3.55,7.32,3.55,13.11-1.19,10.15-3.55,13.1-5.86,4.43-10.49,4.43-8.13-1.47-10.5-4.43-3.54-7.32-3.54-13.1S59.44,960.43,61.8,957.47Zm6.09,20.47a5.28,5.28,0,0,0,8.84,0q1.42-2.38,1.43-7.38t-1.43-7.41a5.25,5.25,0,0,0-8.84,0q-1.45,2.43-1.45,7.38T67.89,977.94Z"/><path d="M89,964.9h8l6.13,22.35-6.95.36Zm16.81,16v6.72H96.15v-6.72Zm-6.59,6.36,6.13-22.35H113l-7.18,22.71Z"/><path d="M120,986.66a10.24,10.24,0,0,1-4.29-4.13,12.65,12.65,0,0,1-1.5-6.27q0-5.6,2.81-8.73a11.3,11.3,0,0,1,15.61,0q2.79,3.13,2.79,8.73v2.86H119.27v-5.73h11.18L128,976.26a9.55,9.55,0,0,0-.72-4.32,2.86,2.86,0,0,0-4.82,0,9.53,9.53,0,0,0-.73,4.32,5,5,0,0,0,1.34,3.88,6.37,6.37,0,0,0,4.3,1.2,9.13,9.13,0,0,0,2.93-.38,14.82,14.82,0,0,0,2.11-.93l0,0,2.81,6a12.41,12.41,0,0,1-3.75,1.57,20.72,20.72,0,0,1-5,.52A13.93,13.93,0,0,1,120,986.66Z"/><path d="M139.21,964.9h7v8l.46,1v13.76h-7.5Zm16.08,5.18-7.22,4a2.3,2.3,0,0,0-1,1,3.28,3.28,0,0,0-.36,1.55h-1.86a18,18,0,0,1,1.49-7.7,10.24,10.24,0,0,1,4.41-4.75l.91-.5Z"/><path d="M173.24,971.62H156.48V964.9h16.76ZM159.93,957h7.49v21.81a3,3,0,0,0,.55,2,2.29,2.29,0,0,0,1.82.63,4.06,4.06,0,0,0,2.18-.68l1.9,6a8.84,8.84,0,0,1-5.36,1.5c-2.81,0-4.95-.68-6.4-2a7.62,7.62,0,0,1-2.18-5.86Z"/><path d="M177.55,953.54h7.5V962h-7.5Zm8.09,27.21a2.24,2.24,0,0,0,1.68.59,3,3,0,0,0,.45,0l.32,0a.2.2,0,0,1,.14,0l.09,6.64a12.09,12.09,0,0,1-2.5.22c-2.75,0-4.82-.69-6.2-2.09s-2.07-3.48-2.07-6.27V964.9h7.5v14.17A2.28,2.28,0,0,0,185.64,980.75Z"/><path d="M191.64,964.9h7v6.54l.45.5v15.67h-7.49Zm12.08,22.71V973a1.72,1.72,0,0,0-.57-1.34,2,2,0,0,0-1.43-.53,2.28,2.28,0,0,0-1.95.84,4.3,4.3,0,0,0-.64,2.62h-1.86a13,13,0,0,1,1-5.23,8.73,8.73,0,0,1,2.75-3.63,6.41,6.41,0,0,1,4-1.32,6.05,6.05,0,0,1,4.61,1.7,6.62,6.62,0,0,1,1.61,4.75v16.76Zm12.13,0V973a1.72,1.72,0,0,0-.57-1.34,2,2,0,0,0-1.43-.53,2.36,2.36,0,0,0-2,.84,4.22,4.22,0,0,0-.66,2.62H209.4a13,13,0,0,1,1-5.23,8.68,8.68,0,0,1,2.77-3.63,6.46,6.46,0,0,1,4-1.32,6.08,6.08,0,0,1,4.59,1.7,6.59,6.59,0,0,1,1.63,4.75v16.76Z"/><path d="M232.82,986.66a10.21,10.21,0,0,1-4.3-4.13,12.65,12.65,0,0,1-1.5-6.27q0-5.6,2.82-8.73a11.28,11.28,0,0,1,15.6,0q2.81,3.13,2.8,8.73v2.86H232.07v-5.73h11.17l-2.45,2.87a9.39,9.39,0,0,0-.73-4.32,2.85,2.85,0,0,0-4.81,0,9.39,9.39,0,0,0-.73,4.32,5,5,0,0,0,1.34,3.88,6.32,6.32,0,0,0,4.29,1.2,9.09,9.09,0,0,0,2.93-.38,14.34,14.34,0,0,0,2.11-.93l.05,0,2.82,6a12.41,12.41,0,0,1-3.75,1.57,20.87,20.87,0,0,1-5,.52A13.89,13.89,0,0,1,232.82,986.66Z"/><circle class="cls-30" cx="33.05" cy="973.89" r="9.09"/><path d="M316.48,953.54l-11.54,34.07h-8l11.94-34.07ZM321.15,974v7.72H304.57V974Zm8.14,13.62h-8.45L309.3,953.54h8Z"/><path d="M340,953.54v34.07h-8.18V953.54Zm15.12,29.64a10.39,10.39,0,0,1-9,4.43h-8.81v-7.72h7.36a4.45,4.45,0,0,0,4-2.47,16.75,16.75,0,0,0,0-13.68,4.45,4.45,0,0,0-4-2.47h-7.36v-7.73h8.81a10.42,10.42,0,0,1,9,4.43q3.18,4.44,3.18,12.61T355.13,983.18Z"/><path d="M371.17,953.54v34.07H363V953.54Zm14.54,17.33a9.3,9.3,0,0,1-3.64,4,10.41,10.41,0,0,1-5.45,1.41h-7.49v-7.73h6.08a3.38,3.38,0,0,0,2.59-.95,4.4,4.4,0,0,0,0-5.36,3.38,3.38,0,0,0-2.59-1h-6.08v-7.73h7.49a10.41,10.41,0,0,1,5.45,1.41,9.36,9.36,0,0,1,3.64,4,14.67,14.67,0,0,1,0,11.94Z"/><path d="M408.24,953.54v34.07h-8.18V953.54Zm15,31.51a9.26,9.26,0,0,1-6.9,2.56h-13v-7.72h11.49a2.72,2.72,0,0,0,2-.73,2.8,2.8,0,0,0,.73-2.09,2.9,2.9,0,0,0-.73-2.11,2.7,2.7,0,0,0-2-.75H403.38v-4.59H416.6q4.44,0,6.83,2.21a8.25,8.25,0,0,1,2.39,6.38A9.27,9.27,0,0,1,423.27,985.05Zm-.45-16.13q-2.31,2.12-6.68,2.11H403.79v-4.54h10.63a2.52,2.52,0,0,0,1.88-.68,2.72,2.72,0,0,0,.66-2,2.63,2.63,0,0,0-.66-1.93,2.59,2.59,0,0,0-1.88-.65H403.79v-7.73h12.13a8.58,8.58,0,0,1,9.22,9.18A8,8,0,0,1,422.82,968.92Z"/><path d="M434.47,986.66a10.24,10.24,0,0,1-4.29-4.13,12.65,12.65,0,0,1-1.5-6.27q0-5.6,2.82-8.73a11.28,11.28,0,0,1,15.6,0c1.86,2.09,2.8,5,2.8,8.73v2.86H433.72v-5.73H444.9l-2.45,2.87a9.53,9.53,0,0,0-.73-4.32,2.86,2.86,0,0,0-4.82,0,9.55,9.55,0,0,0-.72,4.32,5,5,0,0,0,1.34,3.88,6.32,6.32,0,0,0,4.29,1.2,9.09,9.09,0,0,0,2.93-.38,14.34,14.34,0,0,0,2.11-.93l0,0,2.81,6a12.46,12.46,0,0,1-3.74,1.57,20.87,20.87,0,0,1-5,.52A14,14,0,0,1,434.47,986.66Z"/><path d="M453.67,964.9h7v7.36l.45.91v14.44h-7.49ZM468,987.61V973.76a2.47,2.47,0,0,0-.79-1.91,3.1,3.1,0,0,0-2.16-.73,3.45,3.45,0,0,0-2,.62,4.12,4.12,0,0,0-1.39,1.68,5.7,5.7,0,0,0-.5,2.43H459.3c0-3.61.79-6.41,2.38-8.43a8,8,0,0,1,6.66-3,7.11,7.11,0,0,1,7.18,7.18v16Z"/><path d="M487.94,980a4.47,4.47,0,0,0,3.48,1.36,5.67,5.67,0,0,0,4.36-1.81l2.81,5.9a8.39,8.39,0,0,1-3.36,2,14.28,14.28,0,0,1-4.59.68q-5.4,0-8.42-3.13c-2-2.09-3-5-3-8.72s1-6.64,3-8.73,4.82-3.13,8.42-3.13a14.57,14.57,0,0,1,4.59.68,8.51,8.51,0,0,1,3.36,2L495.78,973a5.59,5.59,0,0,0-4.36-1.87,4.48,4.48,0,0,0-3.46,1.39,6.17,6.17,0,0,0,0,7.47Z"/><path d="M502,953.54h7.5v34.07H502Zm14.36,34.07V973.76a2.5,2.5,0,0,0-.79-1.91,3.1,3.1,0,0,0-2.16-.73,3.45,3.45,0,0,0-2,.62,4.12,4.12,0,0,0-1.39,1.68,5.7,5.7,0,0,0-.5,2.43h-1.86c0-3.61.79-6.41,2.38-8.43a8,8,0,0,1,6.66-3,7.11,7.11,0,0,1,7.18,7.18v16Z"/><path d="M528.17,964.9h7v6.54l.45.5v15.67h-7.49Zm12.08,22.71V973a1.72,1.72,0,0,0-.57-1.34,2,2,0,0,0-1.43-.53,2.28,2.28,0,0,0-2,.84,4.3,4.3,0,0,0-.64,2.62H533.8a13,13,0,0,1,1-5.23,8.73,8.73,0,0,1,2.75-3.63,6.41,6.41,0,0,1,4-1.32,6.05,6.05,0,0,1,4.61,1.7,6.62,6.62,0,0,1,1.62,4.75v16.76Zm12.13,0V973a1.72,1.72,0,0,0-.57-1.34,2,2,0,0,0-1.43-.53,2.36,2.36,0,0,0-2,.84,4.23,4.23,0,0,0-.65,2.62h-1.82a13,13,0,0,1,1-5.23,8.68,8.68,0,0,1,2.77-3.63,6.46,6.46,0,0,1,3.95-1.32,6.08,6.08,0,0,1,4.59,1.7,6.59,6.59,0,0,1,1.63,4.75v16.76Z"/><path d="M571.46,979.39a1.8,1.8,0,0,0-.55.5,1.21,1.21,0,0,0-.18.68.86.86,0,0,0,.34.68,1.34,1.34,0,0,0,.89.28,4.31,4.31,0,0,0,2.32-.73,5.46,5.46,0,0,0,1.81-1.89,4.66,4.66,0,0,0,.68-2.43h1.87a16.38,16.38,0,0,1-1.07,6.18,8.77,8.77,0,0,1-3.09,4.05,8.09,8.09,0,0,1-4.7,1.4,6.48,6.48,0,0,1-4.75-1.77,6.93,6.93,0,0,1-.64-8.47,13.8,13.8,0,0,1,4.12-3.29l9-5.23,3,4.82Zm4.13-7.18a5,5,0,0,0-3.45-1.09,11,11,0,0,0-3.27.57,15.07,15.07,0,0,0-3.36,1.52l-1.91-6.63a16.73,16.73,0,0,1,9-2.18c3.78,0,6.67.89,8.65,2.68s3,4.39,3,7.81v12.72h-7v-7.54l-.46-.63v-4.05A4.11,4.11,0,0,0,575.59,972.21Z"/><path d="M588.63,964.9h7v8l.46,1v13.76h-7.5Zm16.08,5.18-7.22,4a2.25,2.25,0,0,0-1,1,3.28,3.28,0,0,0-.36,1.55h-1.87a17.83,17.83,0,0,1,1.5-7.7,10.24,10.24,0,0,1,4.41-4.75l.91-.5Z"/><path d="M607.21,953.54h7.49v34.07h-7.49Zm9.81,25.4h-5.09v-6.73H617Zm13,8.67h-8.91L613.7,975.8l7.45-1.54Zm-15.63-12.76,6.09-10h8.63l-7.54,11.49Z"/><rect class="cls-30" x="255.64" y="969.35" width="16.15" height="4.54"/><rect class="cls-30" x="275.84" y="969.35" width="16.15" height="4.54"/><path d="M101.74,1021.65v34.07H93.56v-34.07Z"/><path d="M107.1,1033h7v7.35l.45.91v14.45H107.1Zm14.35,22.71v-13.86a2.45,2.45,0,0,0-.79-1.9,3.06,3.06,0,0,0-2.16-.73,3.44,3.44,0,0,0-2,.61,4.12,4.12,0,0,0-1.39,1.68,5.7,5.7,0,0,0-.5,2.43h-1.86q0-5.4,2.38-8.42a8,8,0,0,1,6.66-3,7.11,7.11,0,0,1,7.18,7.17v16Z"/><path d="M148.75,1039.73H132V1033h16.76Zm-13.31-14.68h7.5v21.81a3,3,0,0,0,.54,2,2.27,2.27,0,0,0,1.82.64,4.12,4.12,0,0,0,2.18-.68l1.91,6a8.84,8.84,0,0,1-5.36,1.5c-2.82,0-4.95-.68-6.41-2a7.64,7.64,0,0,1-2.18-5.86Z"/><path d="M157.86,1054.76a10.12,10.12,0,0,1-4.29-4.13,12.62,12.62,0,0,1-1.5-6.27q0-5.58,2.82-8.72a11.28,11.28,0,0,1,15.6,0q2.79,3.13,2.79,8.72v2.86H157.11v-5.72h11.18l-2.46,2.86a9.5,9.5,0,0,0-.72-4.31,2.86,2.86,0,0,0-4.82,0,9.48,9.48,0,0,0-.73,4.31,5,5,0,0,0,1.34,3.89,6.37,6.37,0,0,0,4.3,1.2,9.06,9.06,0,0,0,2.93-.39,12.86,12.86,0,0,0,2.11-.93l0,0,2.81,6a12.41,12.41,0,0,1-3.75,1.57,21.24,21.24,0,0,1-5,.52A13.93,13.93,0,0,1,157.86,1054.76Z"/><path d="M177.05,1033h7v8l.46,1v13.77h-7.5Zm16.08,5.17-7.22,4a2.25,2.25,0,0,0-1,1,3.24,3.24,0,0,0-.36,1.54h-1.86a17.86,17.86,0,0,1,1.5-7.7,10.27,10.27,0,0,1,4.4-4.75l.91-.5Z"/><path d="M195.63,1033h7v7.35l.46.91v14.45h-7.5ZM210,1055.72v-13.86a2.45,2.45,0,0,0-.8-1.9,3,3,0,0,0-2.15-.73,3.47,3.47,0,0,0-2,.61,4.1,4.1,0,0,0-1.38,1.68,5.7,5.7,0,0,0-.5,2.43h-1.86q0-5.4,2.38-8.42a8,8,0,0,1,6.66-3,7.09,7.09,0,0,1,7.17,7.17v16Z"/><path d="M229.07,1047.5a1.68,1.68,0,0,0-.55.5,1.21,1.21,0,0,0-.18.68.83.83,0,0,0,.34.68,1.39,1.39,0,0,0,.89.27,4.17,4.17,0,0,0,2.31-.73,5.46,5.46,0,0,0,1.82-1.88,4.66,4.66,0,0,0,.68-2.43h1.87a16.45,16.45,0,0,1-1.07,6.18,8.8,8.8,0,0,1-3.09,4,8,8,0,0,1-4.7,1.41,6.48,6.48,0,0,1-4.75-1.77A6.94,6.94,0,0,1,222,1046a14,14,0,0,1,4.12-3.29l9-5.22,2.95,4.81Zm4.13-7.18a4.91,4.91,0,0,0-3.45-1.09,11,11,0,0,0-3.27.57,14.63,14.63,0,0,0-3.36,1.52l-1.91-6.63a16.64,16.64,0,0,1,9-2.18c3.78,0,6.67.89,8.65,2.68s3,4.39,3,7.81v12.72h-7v-7.54l-.46-.64v-4A4.11,4.11,0,0,0,233.2,1040.32Z"/><path d="M254.64,1048.86a2.31,2.31,0,0,0,1.68.59l.46,0,.32,0a.17.17,0,0,1,.13,0l.09,6.63a12.78,12.78,0,0,1-2.49.23q-4.14,0-6.21-2.09t-2.06-6.27v-26.21h7.49v25.53A2.28,2.28,0,0,0,254.64,1048.86Z"/><path d="M278.36,1021.65v34.07h-8.18v-34.07Zm15,31.5a9.28,9.28,0,0,1-6.9,2.57h-13V1048H285a2.76,2.76,0,0,0,2-.73,2.8,2.8,0,0,0,.73-2.09,2.88,2.88,0,0,0-.73-2.11,2.7,2.7,0,0,0-2-.75H273.5v-4.59h13.21q4.46,0,6.84,2.2a8.28,8.28,0,0,1,2.39,6.39A9.27,9.27,0,0,1,293.39,1053.15Zm-.45-16.12c-1.55,1.4-3.77,2.11-6.68,2.11H273.9v-4.55h10.63a2.49,2.49,0,0,0,1.89-.68,2.68,2.68,0,0,0,.66-2,2.61,2.61,0,0,0-.66-1.93,2.56,2.56,0,0,0-1.89-.66H273.9v-7.72H286a8.58,8.58,0,0,1,9.23,9.17A8,8,0,0,1,292.94,1037Z"/><path d="M304.59,1054.76a10.12,10.12,0,0,1-4.29-4.13,12.62,12.62,0,0,1-1.5-6.27q0-5.58,2.81-8.72a11.3,11.3,0,0,1,15.61,0q2.79,3.13,2.79,8.72v2.86H303.84v-5.72H315l-2.46,2.86a9.5,9.5,0,0,0-.72-4.31,2.86,2.86,0,0,0-4.82,0,9.48,9.48,0,0,0-.73,4.31,5,5,0,0,0,1.34,3.89,6.37,6.37,0,0,0,4.3,1.2,9.1,9.1,0,0,0,2.93-.39,12.86,12.86,0,0,0,2.11-.93l0,0,2.82,6a12.41,12.41,0,0,1-3.75,1.57,21.24,21.24,0,0,1-5,.52A13.93,13.93,0,0,1,304.59,1054.76Z"/><path d="M323.78,1033h7v7.35l.46.91v14.45h-7.5Zm14.36,22.71v-13.86a2.45,2.45,0,0,0-.8-1.9,3,3,0,0,0-2.15-.73,3.47,3.47,0,0,0-2,.61,4.1,4.1,0,0,0-1.38,1.68,5.56,5.56,0,0,0-.5,2.43h-1.86q0-5.4,2.38-8.42a8,8,0,0,1,6.66-3,7.09,7.09,0,0,1,7.17,7.17v16Z"/><path d="M358.06,1048.09a4.46,4.46,0,0,0,3.47,1.36,5.67,5.67,0,0,0,4.36-1.82l2.82,5.91a8.51,8.51,0,0,1-3.36,2,14.57,14.57,0,0,1-4.59.68q-5.4,0-8.43-3.14c-2-2.09-3-5-3-8.72s1-6.63,3-8.72,4.83-3.13,8.43-3.13a14.28,14.28,0,0,1,4.59.68,8.39,8.39,0,0,1,3.36,2l-2.82,5.9a5.6,5.6,0,0,0-4.36-1.86,4.47,4.47,0,0,0-3.45,1.38,5.34,5.34,0,0,0-1.27,3.75A5.28,5.28,0,0,0,358.06,1048.09Z"/><path d="M372.07,1021.65h7.5v34.07h-7.5Zm14.36,34.07v-13.86a2.45,2.45,0,0,0-.8-1.9,3.06,3.06,0,0,0-2.16-.73,3.46,3.46,0,0,0-2,.61,4.1,4.1,0,0,0-1.38,1.68,5.56,5.56,0,0,0-.5,2.43H377.7q0-5.4,2.39-8.42a8,8,0,0,1,6.65-3,7.09,7.09,0,0,1,6.23,3.54,7.13,7.13,0,0,1,.95,3.63v16Z"/><path d="M398.28,1033h7v6.54l.46.5v15.67h-7.5Zm12.09,22.71v-14.63a1.75,1.75,0,0,0-.57-1.34,2,2,0,0,0-1.43-.52,2.28,2.28,0,0,0-1.95.84,4.29,4.29,0,0,0-.64,2.61h-1.86a13,13,0,0,1,1-5.22,8.76,8.76,0,0,1,2.74-3.64,6.45,6.45,0,0,1,4-1.31,6,6,0,0,1,4.61,1.7,6.65,6.65,0,0,1,1.61,4.75v16.76Zm12.13,0v-14.63a1.75,1.75,0,0,0-.57-1.34,2,2,0,0,0-1.43-.52,2.36,2.36,0,0,0-2,.84,4.21,4.21,0,0,0-.66,2.61h-1.81a13,13,0,0,1,1-5.22,8.65,8.65,0,0,1,2.77-3.64,6.45,6.45,0,0,1,3.95-1.31,6,6,0,0,1,4.59,1.7A6.57,6.57,0,0,1,430,1039v16.76Z"/><path d="M441.58,1047.5a1.59,1.59,0,0,0-.55.5,1.21,1.21,0,0,0-.18.68.83.83,0,0,0,.34.68,1.39,1.39,0,0,0,.89.27,4.22,4.22,0,0,0,2.31-.73,5.46,5.46,0,0,0,1.82-1.88,4.75,4.75,0,0,0,.68-2.43h1.86a16.46,16.46,0,0,1-1.06,6.18,8.93,8.93,0,0,1-3.09,4,8,8,0,0,1-4.71,1.41,6.45,6.45,0,0,1-4.74-1.77,6.9,6.9,0,0,1-.64-8.48,13.76,13.76,0,0,1,4.11-3.29l9-5.22,2.95,4.81Zm4.13-7.18a4.91,4.91,0,0,0-3.45-1.09,11,11,0,0,0-3.27.57,14.51,14.51,0,0,0-3.37,1.52l-1.9-6.63a16.64,16.64,0,0,1,9-2.18c3.78,0,6.67.89,8.65,2.68s3,4.39,3,7.81v12.72h-7.05v-7.54l-.45-.64v-4A4.11,4.11,0,0,0,445.71,1040.32Z"/><path d="M458.75,1033h7v8l.45,1v13.77h-7.49Zm16.08,5.17-7.22,4a2.2,2.2,0,0,0-1,1,3.13,3.13,0,0,0-.37,1.54h-1.86a17.86,17.86,0,0,1,1.5-7.7,10.29,10.29,0,0,1,4.41-4.75l.9-.5Z"/><path d="M477.33,1021.65h7.49v34.07h-7.49Zm9.81,25.39h-5.09v-6.72h5.09Zm12.95,8.68h-8.91l-7.36-11.81,7.45-1.55ZM484.46,1043l6.09-9.94h8.63l-7.54,11.49Z"/><rect class="cls-30" x="43.96" y="1037.45" width="16.15" height="4.54"/><rect class="cls-30" x="64.15" y="1037.45" width="16.15" height="4.54"/><text class="cls-31" transform="translate(48.84 1231.66)">N<tspan class="cls-32" x="24.68" y="0">e</tspan><tspan x="42.61" y="0">wside, </tspan><tspan class="cls-33" x="151.38" y="0">P</tspan><tspan x="169.74" y="0">A</tspan></text><text class="cls-34" transform="translate(48.84 1191.53)">Sto<tspan class="cls-35" x="50.21" y="0">r</tspan><tspan x="60.58" y="0">e </tspan><tspan class="cls-33" x="84.37" y="0">P</tspan><tspan x="100.81" y="0">A1872</tspan></text><text class="cls-36" transform="translate(294.82 1126.68)">0</text><text class="cls-36" transform="translate(350.38 1126.68)">5%</text><text class="cls-36" transform="translate(461.5 1126.68)">10%</text><text class="cls-36" transform="translate(577.17 1126.68)">15%</text><line class="cls-37" x1="295.84" y1="1154.8" x2="295.84" y2="1287.38"/><line class="cls-37" x1="362.7" y1="1154.8" x2="362.7" y2="1287.38"/><line class="cls-37" x1="429.57" y1="1154.8" x2="429.57" y2="1287.38"/><line class="cls-37" x1="496.43" y1="1154.8" x2="496.43" y2="1287.38"/><line class="cls-37" x1="563.3" y1="1154.8" x2="563.3" y2="1287.38"/><line class="cls-37" x1="630.16" y1="1154.8" x2="630.16" y2="1287.38"/><rect class="cls-7" x="294.82" y="1181.87" width="148.47" height="49.79"/><line class="cls-37" x1="414.65" y1="1167.08" x2="414.65" y2="1256.75"/><line class="cls-38" x1="461.5" y1="1167.08" x2="461.5" y2="1256.75"/></g></g></svg>
